<svg id="Layer_1" data-name="Layer 1" xmlns="http://www.w3.org/2000/svg" viewBox="0 0 412.74 137.4"><defs><style>.cls-1{fill:#010101;}.cls-2{fill:#fff;}.cls-3{fill:none;stroke:#ef4237;stroke-miterlimit:10;}</style></defs><title>اللوقو النهائي out lines لـ morse 2</title><path class="cls-1" d="M221.33,488.75v1.18h-6.56v15.43h-1.18V489.93H207v-1.18Z" transform="translate(-85.46 -368.24)"/><path class="cls-1" d="M225,505.36V488.75h10.75v1.18h-9.6v6.54h7.48v1.17h-7.48v6.52h9.6v1.2Z" transform="translate(-85.46 -368.24)"/><path class="cls-1" d="M247.52,505.54a8.21,8.21,0,0,1-4.22-1.15,8.53,8.53,0,0,1-3.06-3.11,8.51,8.51,0,0,1,3.06-11.58,8.26,8.26,0,0,1,7.6-.42,8.71,8.71,0,0,1,2.85,2.05l-.89.79a7.37,7.37,0,0,0-2.42-1.79,7.15,7.15,0,0,0-6.55.35,7.35,7.35,0,0,0-2.64,2.67,7.33,7.33,0,0,0,0,7.36,7.35,7.35,0,0,0,2.64,2.67,7.06,7.06,0,0,0,3.63,1,7,7,0,0,0,3.1-.72,7.37,7.37,0,0,0,2.52-2l.92.72a8.46,8.46,0,0,1-2.91,2.34A8.28,8.28,0,0,1,247.52,505.54Z" transform="translate(-85.46 -368.24)"/><path class="cls-1" d="M268.8,497.64H259v7.72h-1.18V488.75H259v7.72h9.81v-7.72H270v16.61H268.8Z" transform="translate(-85.46 -368.24)"/><path class="cls-1" d="M276.05,491.87v13.49H274.9V488.55l11.5,13.74V488.75h1.15v16.89Z" transform="translate(-85.46 -368.24)"/><path class="cls-1" d="M299.81,505.54a8.14,8.14,0,0,1-4.21-1.14,8.51,8.51,0,0,1,0-14.69,8.36,8.36,0,0,1,8.43,0,8.52,8.52,0,0,1,0,14.69A8.2,8.2,0,0,1,299.81,505.54Zm0-15.79a7.06,7.06,0,0,0-3.63,1,7.4,7.4,0,0,0-2.64,2.66,7.34,7.34,0,0,0,0,7.33,7.48,7.48,0,0,0,2.64,2.66,7.21,7.21,0,0,0,7.26,0,7.45,7.45,0,0,0,2.63-2.66,7.41,7.41,0,0,0,0-7.33,7.37,7.37,0,0,0-2.63-2.66A7.06,7.06,0,0,0,299.81,489.75Z" transform="translate(-85.46 -368.24)"/><path class="cls-1" d="M311.92,505.36V488.75h1.15v15.46h9.32v1.15Z" transform="translate(-85.46 -368.24)"/><path class="cls-1" d="M332.59,505.54a8.17,8.17,0,0,1-4.22-1.14,8.51,8.51,0,0,1,0-14.69,8.36,8.36,0,0,1,8.43,0,8.51,8.51,0,0,1,0,14.69A8.16,8.16,0,0,1,332.59,505.54Zm0-15.79a7,7,0,0,0-3.63,1,7.42,7.42,0,0,0-2.65,2.66,7.34,7.34,0,0,0,0,7.33,7.5,7.5,0,0,0,2.65,2.66,7.19,7.19,0,0,0,7.25,0,7.29,7.29,0,0,0,2.63-2.66,7.35,7.35,0,0,0-2.63-10A7,7,0,0,0,332.59,489.75Z" transform="translate(-85.46 -368.24)"/><path class="cls-1" d="M358.29,505.36h-6a8.15,8.15,0,0,1-4.19-1.13,8.37,8.37,0,0,1-4.16-7.28,8.21,8.21,0,0,1,1.12-4.2,8.44,8.44,0,0,1,3-3.07,8.28,8.28,0,0,1,7.53-.42,8.55,8.55,0,0,1,2.77,2l-.85.8a7,7,0,0,0-2.4-1.7,7.09,7.09,0,0,0-2.86-.6,7,7,0,0,0-3.6,1,7.26,7.26,0,0,0-2.63,2.62,7,7,0,0,0-1,3.61,7.05,7.05,0,0,0,1,3.63,7.24,7.24,0,0,0,2.63,2.64,6.92,6.92,0,0,0,3.6,1h4.8v-6h-5.46V497.1h6.67Z" transform="translate(-85.46 -368.24)"/><path class="cls-1" d="M369,498.36l6.53-9.61h1.39l-7.36,10.86v5.75h-1.15v-5.75l-7.36-10.86h1.38Z" transform="translate(-85.46 -368.24)"/><path class="cls-1" d="M98.23,369.56l40.51,99.11h-11.2L97.31,394.59v74.08H85.46V369.56Zm79.86.14v99.11H166.23V394.88l-23.58,57.68-5.6-13.76,28.27-69.24Z" transform="translate(-85.46 -368.24)"/><path class="cls-1" d="M365.56,398c0,15.22-8.85,29-31.52,29H316.45v41.73H304.59V368.83H334c21.49,0,31.52,12.88,31.52,29.27ZM334,416c13.68,0,19.41-7,19.41-18.15,0-11.56-5.73-18.44-19.41-18.44H316.45v36.74H334Zm33,52.41H352.67l-16.16-30.3h13.81Z" transform="translate(-85.46 -368.24)"/><path class="cls-1" d="M389.54,395.47c0,25.76,49.25,9.66,49.25,46.55,0,14.2-10.56,28.26-30.36,28.26-16.41,0-28.53-8.93-31.14-22.55l12.25-5c.78,8.35,6.12,16.69,18.76,16.69,11.47,0,18.24-7.17,18.24-16.69,0-26.93-49.38-9.8-49.38-46.84,0-16.54,12.12-27.67,30.23-27.67,15.37,0,26.05,8.2,29.31,20.64l-12.11,5c-.79-6.74-6.52-14.35-17.59-14.49-9.77-.3-17.46,5.27-17.46,15.95Z" transform="translate(-85.46 -368.24)"/><path class="cls-1" d="M498.06,458v.29l-3.38,10.54h-45.6V412.89H493.5L490,423.58H461.06V458Zm-37-55.78H449.21V368.68h49l-3.51,10.69H461.06Z" transform="translate(-85.46 -368.24)"/><circle class="cls-2" cx="321.48" cy="5.59" r="2.87"/><circle class="cls-2" cx="321.48" cy="50.3" r="2.87"/><circle class="cls-2" cx="271.95" cy="95.05" r="2.87"/><circle class="cls-2" cx="224.89" cy="95.05" r="2.87"/><circle class="cls-2" cx="369.92" cy="49.96" r="2.87"/><circle class="cls-2" cx="321.48" cy="96.58" r="2.87"/><path class="cls-1" d="M191.3,415.77c2.63-26.06,22.83-45.68,50.79-45.68s48,19.47,50.66,45.53l-12.3-4.54c-4.1-16.25-18.15-27.37-38.36-27.37S207.84,395,203.74,411.23l-12.3,4.54Zm12.15,14.78c3.66,17,17.86,28.84,38.79,28.84s35-11.71,38.79-28.54l12.16-4.4c-2.2,26.5-22.55,46.7-50.8,46.7s-48.75-20.35-50.8-47l12,4.39Z" transform="translate(-85.46 -368.24)"/><rect class="cls-2" x="231.03" y="52.22" width="20.09" height="2.25" rx="1.13"/><rect class="cls-2" x="147.16" y="431.63" width="49.93" height="2.25" rx="1.13" transform="translate(-346.08 236.64) rotate(-90)"/><rect class="cls-2" x="66.42" y="431.34" width="49.93" height="2.25" rx="1.13" transform="translate(-426.54 155.62) rotate(-90)"/><path class="cls-2" d="M271,456.36a45,45,0,0,1-57.42.19c-1.23-1-3,.75-1.77,1.77a48.08,48.08,0,0,0,48.85,7.22,48.68,48.68,0,0,0,12.11-7.41c1.24-1-.53-2.79-1.77-1.77Z" transform="translate(-85.46 -368.24)"/><path class="cls-2" d="M274.07,389.78A45,45,0,0,1,276.49,451c-1,1.22.72,3,1.77,1.76a47.56,47.56,0,0,0-2.42-64.7,1.25,1.25,0,0,0-1.77,1.77Z" transform="translate(-85.46 -368.24)"/><path class="cls-2" d="M208.75,388a48,48,0,0,0-10.48,51.47,48.5,48.5,0,0,0,8.06,13.23c1,1.23,2.81-.54,1.77-1.76a45.06,45.06,0,0,1,2.42-61.17,1.25,1.25,0,0,0-1.77-1.77Z" transform="translate(-85.46 -368.24)"/><path class="cls-3" d="M316.84,422.18" transform="translate(-85.46 -368.24)"/></svg>