<svg width="127" height="127" viewBox="0 0 127 127" fill="none" xmlns="http://www.w3.org/2000/svg">
<path d="M20.19 85.04C20.59 84.69 20.71 84.12 20.5 83.63C19.09 80.37 16.92 75.54 16.27 71.95C15.76 69.15 15.49 66.26 15.49 63.3C15.49 60.43 15.75 57.62 16.24 54.88C16.38 54.12 15.79 53.43 15.02 53.43C14.42 53.43 13.9 53.87 13.8 54.46C13.29 57.33 13.02 60.28 13.02 63.3C13.02 66.41 13.3 69.44 13.84 72.39C14.78 77.52 16.57 80.65 18.27 84.6C18.59 85.37 19.57 85.59 20.19 85.04Z" fill="#606060"/>
<path d="M84.25 107.6C83.97 106.98 83.24 106.7 82.62 106.97C76.7 109.6 70.15 111.06 63.26 111.06C54.77 111.06 46.79 108.84 39.88 104.96C33.58 101.42 28.63 97.17 24.57 91.36C24.11 90.7 23.16 90.65 22.63 91.26C22.26 91.69 22.24 92.32 22.57 92.78C26.82 98.64 32.31 103.55 38.65 107.12C45.92 111.21 54.31 113.54 63.25 113.54C70.5 113.54 77.39 112 83.62 109.24C84.25 108.97 84.53 108.23 84.25 107.6Z" fill="#606060"/>
<path d="M65.7101 13.13C64.9001 13.09 64.0801 13.07 63.2601 13.07C59.0801 13.07 55.0201 13.58 51.1301 14.54C47.7701 15.37 44.5301 16.55 41.4701 18.02C38.0301 19.68 34.8101 21.71 31.8601 24.08C25.3501 29.3 20.1601 36.11 16.8901 43.92C16.6501 44.48 16.4301 45.05 16.2101 45.63C15.9101 46.44 16.5101 47.29 17.3701 47.29C17.8901 47.29 18.3501 46.96 18.5301 46.48C18.7301 45.94 18.9401 45.4 19.1701 44.87C22.2801 37.45 27.2101 30.97 33.4001 26.01C36.2001 23.76 39.2701 21.83 42.5301 20.25C45.4401 18.85 48.5101 17.73 51.7101 16.94C55.4001 16.03 59.2601 15.54 63.2401 15.54C64.0201 15.54 64.8001 15.56 65.5701 15.6C90.8701 16.81 111 37.71 111 63.3C111 68.84 110.06 74.15 108.33 79.1C105.95 85.89 102.08 91.98 97.1101 96.98C96.7401 97.35 96.3601 97.72 95.9801 98.08C95.7301 98.32 95.5901 98.64 95.5901 98.99C95.5901 100.08 96.8901 100.64 97.6901 99.89C98.0901 99.51 98.4801 99.13 98.8701 98.74C104.1 93.48 108.17 87.08 110.67 79.93C112.49 74.73 113.49 69.14 113.49 63.31C113.49 36.38 92.3101 14.41 65.7101 13.13Z" fill="#606060"/>
<path d="M63.25 0C54.55 0 45.95 1.79 37.98 5.26C36.78 5.78 36.26 7.19 36.82 8.37C37.35 9.48 38.67 9.98 39.79 9.49C46.97 6.35 54.91 4.61 63.24 4.61C64.2 4.61 65.16 4.64 66.11 4.68C96.46 6.14 120.77 30.66 121.9 61.1C121.95 62.34 122.97 63.31 124.2 63.31C125.51 63.31 126.56 62.22 126.51 60.91C125.24 27.27 97.18 0 63.25 0Z" fill="#606060"/>
<path d="M104.88 104.69C94.2399 115.39 79.5199 122 63.2499 122C35.1999 122 11.7499 102.33 5.9399 76.03C5.6799 74.84 4.5099 74.08 3.3199 74.3L3.2599 74.31C1.9899 74.54 1.1799 75.79 1.4599 77.05C7.8599 105.79 33.6199 126.61 63.2599 126.61C89.2999 126.61 112.71 110.55 122.18 86.46C122.65 85.26 122.04 83.9 120.82 83.47L120.77 83.45C119.61 83.04 118.35 83.64 117.9 84.78C114.94 92.31 110.48 99.07 104.88 104.69Z" fill="#606060"/>
<path d="M31.74 13.6C30.1 13.6 28.77 12.27 28.77 10.63V10.36C28.77 8.72 30.1 7.39 31.74 7.39C33.38 7.39 34.71 8.72 34.71 10.36V10.63C34.71 12.27 33.38 13.6 31.74 13.6Z" fill="#606060"/>
<path d="M89.7801 106.65C88.1401 106.65 86.8101 105.32 86.8101 103.68V103.41C86.8101 101.77 88.1401 100.44 89.7801 100.44C91.4201 100.44 92.7501 101.77 92.7501 103.41V103.68C92.7501 105.32 91.4201 106.65 89.7801 106.65Z" fill="#606060"/>
<path d="M123.27 76.15C121.63 76.15 120.3 74.82 120.3 73.18V72.91C120.3 71.27 121.63 69.94 123.27 69.94C124.91 69.94 126.24 71.27 126.24 72.91V73.18C126.24 74.82 124.91 76.15 123.27 76.15Z" fill="#606060"/>
<path d="M2.97 70.55C1.33 70.55 0 69.22 0 67.58V67.31C0 65.67 1.33 64.34 2.97 64.34C4.61 64.34 5.94 65.67 5.94 67.31V67.58C5.94 69.22 4.61 70.55 2.97 70.55Z" fill="#606060"/>
<path d="M63.26 114.32C91.432 114.32 114.27 91.482 114.27 63.31C114.27 35.138 91.432 12.3 63.26 12.3C35.088 12.3 12.25 35.138 12.25 63.31C12.25 91.482 35.088 114.32 63.26 114.32Z" fill="#606060"/>
<path d="M55.7299 83.5C54.5799 83.5 53.4299 83.06 52.5499 82.18L36.2199 65.85C34.4599 64.09 34.4599 61.24 36.2199 59.49C37.9799 57.73 40.8299 57.73 42.5799 59.49L55.7299 72.64L83.9299 44.44C85.6899 42.68 88.5399 42.68 90.2899 44.44C92.0499 46.2 92.0499 49.05 90.2899 50.8L58.9199 82.18C58.0399 83.06 56.8899 83.5 55.7299 83.5Z" fill="white"/>
</svg>
