<svg width="706" height="314" viewBox="0 0 706 314" fill="none" xmlns="http://www.w3.org/2000/svg">
<rect x="153.623" y="95.7645" width="95.2741" height="36.3774" rx="18.1887" transform="rotate(-90 153.623 95.7645)" fill="black" fill-opacity="0.08"/>
<rect x="190" y="146" width="36.3774" height="36.3774" rx="18.1887" transform="rotate(-180 190 146)" fill="black" fill-opacity="0.08"/>
<rect x="342.377" y="50.2355" width="95.2741" height="36.3774" rx="18.1887" transform="rotate(90 342.377 50.2355)" fill="black" fill-opacity="0.08"/>
<rect x="306" width="36.3774" height="36.3774" rx="18.1887" fill="black" fill-opacity="0.08"/>
<rect x="610.377" y="100.235" width="95.2741" height="36.3774" rx="18.1887" transform="rotate(90 610.377 100.235)" fill="black" fill-opacity="0.08"/>
<rect x="574" y="50" width="36.3774" height="36.3774" rx="18.1887" fill="black" fill-opacity="0.08"/>
<rect x="574" width="36.3774" height="36.3774" rx="18.1887" fill="black" fill-opacity="0.08"/>
<rect x="669" y="50" width="36.3774" height="36.3774" rx="18.1887" fill="black" fill-opacity="0.08"/>
<rect x="669" y="100" width="36.3774" height="36.3774" rx="18.1887" fill="black" fill-opacity="0.08"/>
<rect x="669" width="36.3774" height="36.3774" rx="18.1887" fill="black" fill-opacity="0.08"/>
<rect x="266.377" width="95.2741" height="36.3774" rx="18.1887" transform="rotate(90 266.377 0)" fill="black" fill-opacity="0.08"/>
<rect x="495.377" width="95.2741" height="36.3774" rx="18.1887" transform="rotate(90 495.377 0)" fill="black" fill-opacity="0.08"/>
<rect x="36.3787" width="95.2741" height="36.3774" rx="18.1887" transform="rotate(90 36.3787 0)" fill="black" fill-opacity="0.08"/>
<rect x="0.00170898" y="109.274" width="36.3774" height="36.3774" rx="18.1887" fill="black" fill-opacity="0.08"/>
<rect y="268" width="36.3774" height="36.3774" rx="18.1887" fill="black" fill-opacity="0.08"/>
<rect x="36.3774" y="158.765" width="95.2741" height="36.3774" rx="18.1887" transform="rotate(90 36.3774 158.765)" fill="black" fill-opacity="0.08"/>
<rect x="418.379" width="95.2741" height="36.3774" rx="18.1887" transform="rotate(90 418.379 0)" fill="black" fill-opacity="0.08"/>
<rect x="382.002" y="109.274" width="36.3774" height="36.3774" rx="18.1887" fill="black" fill-opacity="0.08"/>
<rect x="382" y="268" width="36.3774" height="36.3774" rx="18.1887" fill="black" fill-opacity="0.08"/>
<rect x="418.377" y="158.765" width="95.2741" height="36.3774" rx="18.1887" transform="rotate(90 418.377 158.765)" fill="black" fill-opacity="0.08"/>
<rect x="113.379" width="95.2741" height="36.3774" rx="18.1887" transform="rotate(90 113.379 0)" fill="black" fill-opacity="0.08"/>
<rect x="113.377" y="109" width="95.2741" height="36.3774" rx="18.1887" transform="rotate(90 113.377 109)" fill="black" fill-opacity="0.08"/>
<rect x="113.377" y="218" width="95.2741" height="36.3774" rx="18.1887" transform="rotate(90 113.377 218)" fill="black" fill-opacity="0.08"/>
</svg>
