<svg width="32" height="48" viewBox="0 0 32 48" fill="none" xmlns="http://www.w3.org/2000/svg">
<rect x="31.5" y="0.5" width="47" height="31" rx="15.5" transform="rotate(90 31.5 0.5)" fill="white" fill-opacity="0.08" stroke="white"/>
<path d="M12 24C12 24.7911 12.2346 25.5645 12.6741 26.2223C13.1136 26.8801 13.7384 27.3928 14.4693 27.6955C15.2002 27.9983 16.0044 28.0775 16.7804 27.9231C17.5563 27.7688 18.269 27.3878 18.8284 26.8284C19.3878 26.269 19.7688 25.5563 19.9231 24.7804C20.0775 24.0044 19.9983 23.2002 19.6955 22.4693C19.3928 21.7384 18.8801 21.1136 18.2223 20.6741C17.5645 20.2346 16.7911 20 16 20C14.9391 20 13.9217 20.4214 13.1716 21.1716C12.4214 21.9217 12 22.9391 12 24ZM18 24C18 24.3956 17.8827 24.7822 17.6629 25.1111C17.4432 25.44 17.1308 25.6964 16.7654 25.8478C16.3999 25.9991 15.9978 26.0387 15.6098 25.9616C15.2219 25.8844 14.8655 25.6939 14.5858 25.4142C14.3061 25.1345 14.1156 24.7781 14.0384 24.3902C13.9613 24.0022 14.0009 23.6001 14.1522 23.2346C14.3036 22.8692 14.56 22.5568 14.8889 22.3371C15.2178 22.1173 15.6044 22 16 22C16.5304 22 17.0391 22.2107 17.4142 22.5858C17.7893 22.9609 18 23.4696 18 24Z" fill="white"/>
<path d="M16 35.17L10.4 29.58L9 31L16 38L23 31L21.59 29.59L16 35.17Z" fill="white"/>
<path d="M16 12.83L21.58 18.4L23 17L16 10L9 17L10.41 18.41L16 12.83Z" fill="white"/>
</svg>
