<svg width="597" height="188" viewBox="0 0 597 188" fill="none" xmlns="http://www.w3.org/2000/svg">
<rect x="16.7566" y="50" width="43.009" height="16.4216" rx="8.2108" transform="rotate(90 16.7566 50)" fill="black" fill-opacity="0.08"/>
<rect x="16.7566" y="99.2648" width="43.009" height="16.4216" rx="8.2108" transform="rotate(90 16.7566 99.2648)" fill="black" fill-opacity="0.08"/>
<rect x="51.9457" y="30" width="43.009" height="16.4216" rx="8.2108" transform="rotate(90 51.9457 30)" fill="black" fill-opacity="0.08"/>
<rect x="51.9457" y="79.2648" width="43.009" height="16.4216" rx="8.2108" transform="rotate(90 51.9457 79.2648)" fill="black" fill-opacity="0.08"/>
<rect x="51.9457" y="128.53" width="43.009" height="16.4216" rx="8.2108" transform="rotate(90 51.9457 128.53)" fill="black" fill-opacity="0.08"/>
<rect x="87.1349" y="52.6774" width="43.009" height="16.4216" rx="8.2108" transform="rotate(90 87.1349 52.6774)" fill="black" fill-opacity="0.08"/>
<rect x="70.7134" y="30" width="16.4216" height="16.4216" rx="8.2108" fill="black" fill-opacity="0.08"/>
<rect x="70.7133" y="101.942" width="16.4216" height="16.4216" rx="8.2108" fill="black" fill-opacity="0.08"/>
<rect x="141.092" y="30" width="16.4216" height="16.4216" rx="8.2108" fill="black" fill-opacity="0.08"/>
<rect x="105.902" y="10" width="16.4216" height="16.4216" rx="8.2108" fill="black" fill-opacity="0.08"/>
<rect x="105.902" y="32.6774" width="16.4216" height="16.4216" rx="8.2108" fill="black" fill-opacity="0.08"/>
<rect x="105.902" y="55.3549" width="16.4216" height="16.4216" rx="8.2108" fill="black" fill-opacity="0.08"/>
<rect x="209.584" y="30" width="43.009" height="16.4216" rx="8.2108" transform="rotate(90 209.584 30)" fill="black" fill-opacity="0.08"/>
<rect x="455.908" y="30" width="43.009" height="16.4216" rx="8.2108" transform="rotate(90 455.908 30)" fill="black" fill-opacity="0.08"/>
<rect x="455.908" y="79.2648" width="43.009" height="16.4216" rx="8.2108" transform="rotate(90 455.908 79.2648)" fill="black" fill-opacity="0.08"/>
<rect x="455.908" y="128.53" width="43.009" height="16.4216" rx="8.2108" transform="rotate(90 455.908 128.53)" fill="black" fill-opacity="0.08"/>
<rect x="385.53" width="43.009" height="16.4216" rx="8.2108" transform="rotate(90 385.53 0)" fill="black" fill-opacity="0.08"/>
<rect x="385.53" y="49.2648" width="43.009" height="16.4216" rx="8.2108" transform="rotate(90 385.53 49.2648)" fill="black" fill-opacity="0.08"/>
<rect x="385.53" y="98.5296" width="43.009" height="16.4216" rx="8.2108" transform="rotate(90 385.53 98.5296)" fill="black" fill-opacity="0.08"/>
<rect x="350.341" y="30" width="43.009" height="16.4216" rx="8.2108" transform="rotate(90 350.341 30)" fill="black" fill-opacity="0.08"/>
<rect x="333.919" y="79.2648" width="16.4216" height="16.4216" rx="8.2108" fill="black" fill-opacity="0.08"/>
<rect x="279.963" y="50" width="43.009" height="16.4216" rx="8.2108" transform="rotate(90 279.963 50)" fill="black" fill-opacity="0.08"/>
<rect x="279.963" y="121.942" width="43.009" height="16.4216" rx="8.2108" transform="rotate(90 279.963 121.942)" fill="black" fill-opacity="0.08"/>
<rect x="263.541" y="99.2648" width="16.4216" height="16.4216" rx="8.2108" fill="black" fill-opacity="0.08"/>
<rect x="263.541" y="171.207" width="16.4216" height="16.4216" rx="8.2108" fill="black" fill-opacity="0.08"/>
<rect x="491.098" y="50" width="43.009" height="16.4216" rx="8.2108" transform="rotate(90 491.098 50)" fill="black" fill-opacity="0.08"/>
<rect x="491.098" y="99.2648" width="43.009" height="16.4216" rx="8.2108" transform="rotate(90 491.098 99.2648)" fill="black" fill-opacity="0.08"/>
<rect x="474.676" y="148.53" width="16.4216" height="16.4216" rx="8.2108" fill="black" fill-opacity="0.08"/>
<rect x="420.719" y="52.6774" width="43.009" height="16.4216" rx="8.2108" transform="rotate(90 420.719 52.6774)" fill="black" fill-opacity="0.08"/>
<rect x="404.298" y="30" width="16.4216" height="16.4216" rx="8.2108" fill="black" fill-opacity="0.08"/>
<rect x="404.298" y="101.942" width="16.4216" height="16.4216" rx="8.2108" fill="black" fill-opacity="0.08"/>
<rect x="404.298" y="124.62" width="16.4216" height="16.4216" rx="8.2108" fill="black" fill-opacity="0.08"/>
<rect x="545.054" y="30" width="16.4216" height="16.4216" rx="8.2108" fill="black" fill-opacity="0.08"/>
<rect x="228.352" y="30" width="16.4216" height="16.4216" rx="8.2108" fill="black" fill-opacity="0.08"/>
<rect x="298.73" y="30" width="16.4216" height="16.4216" rx="8.2108" fill="black" fill-opacity="0.08"/>
<rect x="298.73" y="75.3549" width="16.4216" height="16.4216" rx="8.2108" fill="black" fill-opacity="0.08"/>
<rect x="298.73" y="52.6774" width="16.4216" height="16.4216" rx="8.2108" fill="black" fill-opacity="0.08"/>
<rect x="298.73" y="98.0323" width="16.4216" height="16.4216" rx="8.2108" fill="black" fill-opacity="0.08"/>
<rect x="509.865" y="30" width="16.4216" height="16.4216" rx="8.2108" fill="black" fill-opacity="0.08"/>
<rect x="509.865" y="52.6774" width="16.4216" height="16.4216" rx="8.2108" fill="black" fill-opacity="0.08"/>
<rect x="580.243" y="50" width="16.4216" height="16.4216" rx="8.2108" fill="black" fill-opacity="0.08"/>
<rect x="580.243" y="72.6774" width="16.4216" height="16.4216" rx="8.2108" fill="black" fill-opacity="0.08"/>
<rect x="580.243" y="95.3549" width="16.4216" height="16.4216" rx="8.2108" fill="black" fill-opacity="0.08"/>
</svg>
