<svg width="24" height="22" viewBox="0 0 24 22" fill="none" xmlns="http://www.w3.org/2000/svg">
<path d="M11.682 5.94979L3.99989 13.0678V20.7501C3.99989 20.949 4.07013 21.1398 4.19515 21.2804C4.32018 21.4211 4.48975 21.5001 4.66656 21.5001L9.33572 21.4865C9.51196 21.4855 9.68067 21.4061 9.80498 21.2655C9.92928 21.125 9.99906 20.9348 9.99906 20.7365V16.2501C9.99906 16.0512 10.0693 15.8604 10.1943 15.7198C10.3193 15.5791 10.4889 15.5001 10.6657 15.5001H13.3324C13.5092 15.5001 13.6788 15.5791 13.8038 15.7198C13.9288 15.8604 13.9991 16.0512 13.9991 16.2501V20.7332C13.9988 20.8319 14.0158 20.9297 14.0492 21.021C14.0826 21.1122 14.1316 21.1952 14.1936 21.2651C14.2555 21.335 14.3291 21.3904 14.4101 21.4283C14.4911 21.4661 14.578 21.4856 14.6657 21.4856L19.3332 21.5001C19.51 21.5001 19.6796 21.4211 19.8046 21.2804C19.9297 21.1398 19.9999 20.949 19.9999 20.7501V13.0626L12.3195 5.94979C12.2292 5.86791 12.1167 5.82326 12.0007 5.82326C11.8847 5.82326 11.7723 5.86791 11.682 5.94979ZM23.8166 10.7878L20.3332 7.5576V1.06494C20.3332 0.915757 20.2805 0.772683 20.1868 0.667194C20.093 0.561705 19.9658 0.502441 19.8332 0.502441H17.4999C17.3673 0.502441 17.2401 0.561705 17.1463 0.667194C17.0526 0.772683 16.9999 0.915757 16.9999 1.06494V4.46854L13.2695 1.01572C12.9115 0.684307 12.4623 0.503104 11.9986 0.503104C11.535 0.503104 11.0858 0.684307 10.7278 1.01572L0.180725 10.7878C0.130095 10.8348 0.0882067 10.8927 0.0574534 10.958C0.0267 11.0233 0.00768456 11.0947 0.00149348 11.1683C-0.00469761 11.2419 0.00205702 11.3161 0.0213714 11.3867C0.0406858 11.4574 0.0721814 11.523 0.114059 11.5799L1.17656 13.0331C1.21832 13.0902 1.26969 13.1375 1.32772 13.1723C1.38576 13.207 1.44932 13.2286 1.51476 13.2357C1.58021 13.2428 1.64626 13.2353 1.70913 13.2136C1.77199 13.192 1.83045 13.1566 1.88114 13.1095L11.682 4.02791C11.7723 3.94603 11.8847 3.90138 12.0007 3.90138C12.1167 3.90138 12.2292 3.94603 12.3195 4.02791L22.1207 13.1095C22.1713 13.1566 22.2297 13.192 22.2925 13.2137C22.3553 13.2355 22.4212 13.2431 22.4866 13.2361C22.552 13.2291 22.6155 13.2078 22.6736 13.1732C22.7316 13.1386 22.783 13.0914 22.8249 13.0345L23.8874 11.5813C23.9292 11.5241 23.9606 11.4581 23.9797 11.3872C23.9988 11.3162 24.0052 11.2417 23.9986 11.168C23.992 11.0942 23.9726 11.0227 23.9413 10.9574C23.9101 10.8922 23.8677 10.8345 23.8166 10.7878Z" fill="#434343"/>
</svg>
