<svg width="223" height="223" viewBox="0 0 223 223" fill="none" xmlns="http://www.w3.org/2000/svg">
<g clip-path="url(#clip0)">
<path d="M35.44 149.25C36.15 148.63 36.36 147.63 35.99 146.77C33.52 141.05 29.71 132.57 28.56 126.28C27.66 121.36 27.19 116.29 27.19 111.11C27.19 106.07 27.64 101.13 28.5 96.34C28.74 95.01 27.72 93.79 26.37 93.79C25.31 93.79 24.41 94.56 24.23 95.6C23.33 100.64 22.85 105.82 22.85 111.12C22.85 116.57 23.34 121.9 24.29 127.08C25.94 136.09 29.09 141.57 32.06 148.5C32.63 149.82 34.34 150.21 35.44 149.25Z" fill="#EBEBEB"/>
<path d="M147.86 188.84C147.37 187.75 146.09 187.26 145 187.74C134.61 192.35 123.12 194.92 111.02 194.92C96.1101 194.92 82.1201 191.03 69.9801 184.21C58.9301 177.99 50.2301 170.54 43.1201 160.35C42.3101 159.19 40.6401 159.1 39.7201 160.17C39.0701 160.93 39.0401 162.03 39.6201 162.84C47.0901 173.13 56.7101 181.74 67.8401 188C80.6001 195.18 95.3301 199.27 111.01 199.27C123.74 199.27 135.83 196.57 146.75 191.72C147.85 191.23 148.35 189.94 147.86 188.84Z" fill="#EBEBEB"/>
<path d="M115.31 23.04C113.89 22.97 112.45 22.94 111.01 22.94C103.67 22.94 96.55 23.84 89.73 25.52C83.83 26.99 78.15 29.04 72.78 31.63C66.75 34.54 61.1 38.11 55.92 42.26C44.49 51.42 35.39 63.37 29.65 77.07C29.24 78.06 28.84 79.06 28.46 80.07C27.93 81.48 28.99 82.99 30.5 82.99C31.41 82.99 32.22 82.42 32.54 81.56C32.9 80.61 33.27 79.67 33.66 78.74C39.12 65.71 47.77 54.35 58.64 45.65C63.56 41.71 68.94 38.31 74.67 35.54C79.78 33.08 85.16 31.12 90.78 29.73C97.26 28.13 104.03 27.27 111.01 27.27C112.38 27.27 113.75 27.3 115.1 27.37C159.49 29.5 194.82 66.17 194.82 111.09C194.82 120.81 193.17 130.14 190.13 138.82C185.95 150.74 179.16 161.43 170.44 170.19C169.79 170.84 169.13 171.48 168.46 172.11C168.02 172.52 167.77 173.1 167.77 173.7C167.77 175.61 170.05 176.59 171.45 175.28C172.15 174.62 172.84 173.95 173.52 173.26C182.69 164.03 189.84 152.79 194.23 140.25C197.43 131.12 199.17 121.31 199.17 111.09C199.18 63.85 162.01 25.28 115.31 23.04Z" fill="#EBEBEB"/>
<path d="M111.01 0C95.74 0 80.64 3.15 66.66 9.23C64.56 10.14 63.63 12.62 64.63 14.68C65.57 16.62 67.87 17.5 69.85 16.64C82.46 11.14 96.38 8.08 111.01 8.08C112.7 8.08 114.37 8.12 116.04 8.2C169.31 10.76 211.97 53.79 213.95 107.21C214.03 109.38 215.82 111.09 217.99 111.09C220.29 111.09 222.12 109.17 222.04 106.87C219.78 47.85 170.55 0 111.01 0Z" fill="#EBEBEB"/>
<path d="M184.05 183.73C165.39 202.5 139.56 214.11 111 214.11C61.78 214.11 20.62 179.59 10.42 133.43C9.95999 131.35 7.91999 130.01 5.81999 130.4L5.70999 130.42C3.47999 130.83 2.05999 133.01 2.54999 135.23C13.78 185.67 58.99 222.21 111 222.21C156.69 222.21 197.79 194.02 214.41 151.75C215.24 149.64 214.17 147.25 212.02 146.5L211.94 146.47C209.9 145.76 207.69 146.8 206.9 148.81C201.71 162 193.88 173.86 184.05 183.73Z" fill="#EBEBEB"/>
<path d="M55.7 23.86C52.82 23.86 50.49 21.53 50.49 18.65V18.18C50.49 15.3 52.82 12.97 55.7 12.97C58.58 12.97 60.91 15.3 60.91 18.18V18.65C60.91 21.53 58.58 23.86 55.7 23.86Z" fill="#EBEBEB"/>
<path d="M216.34 133.64C213.46 133.64 211.13 131.31 211.13 128.43V127.96C211.13 125.08 213.46 122.75 216.34 122.75C219.22 122.75 221.55 125.08 221.55 127.96V128.43C221.55 131.31 219.22 133.64 216.34 133.64Z" fill="#EBEBEB"/>
<path d="M5.21 123.82C2.33 123.82 0 121.49 0 118.61V118.14C0 115.26 2.33 112.93 5.21 112.93C8.09 112.93 10.42 115.26 10.42 118.14V118.61C10.43 121.48 8.09 123.82 5.21 123.82Z" fill="#EBEBEB"/>
<path d="M151.76 198.41H73.74C69.87 198.41 66.74 195.28 66.74 191.41V30.8C66.74 26.93 69.87 23.8 73.74 23.8H151.76C155.63 23.8 158.76 26.93 158.76 30.8V191.41C158.76 195.28 155.63 198.41 151.76 198.41Z" fill="#3A4D57"/>
<path d="M156.404 185.874L156.404 36.334L69.0939 36.334L69.0939 185.874L156.404 185.874Z" fill="#C6C6C6"/>
<path d="M121.16 31.69H104.34C103.78 31.69 103.32 31.23 103.32 30.67C103.32 30.1 103.78 29.65 104.34 29.65H121.16C121.73 29.65 122.18 30.11 122.18 30.67C122.19 31.23 121.73 31.69 121.16 31.69Z" fill="white"/>
<path d="M156.41 171.29H69.1V185.87H156.41V171.29Z" fill="white"/>
<path d="M156.41 36.33H69.1V42.6H156.41V36.33Z" fill="white"/>
<path d="M151.51 56.33H73.98V133.86H151.51V56.33Z" fill="white"/>
<path d="M149.53 58.2H75.96V131.99H149.53V58.2Z" fill="white"/>
<path d="M148.71 59.02V131.16H76.79V59.02H148.71ZM149.54 58.2H75.96V131.99H149.53V58.2H149.54Z" fill="#D1D3D4"/>
<path d="M105.91 140.18H73.98V142.38H105.91V140.18Z" fill="#3A4D57"/>
<path d="M151.51 146.41H73.98V147.51H151.51V146.41Z" fill="#3A4D57"/>
<path d="M151.51 150.02H73.98V151.12H151.51V150.02Z" fill="#3A4D57"/>
<path d="M151.51 153.63H73.98V154.73H151.51V153.63Z" fill="#3A4D57"/>
<path d="M129.37 157.24H73.98V158.34H129.37V157.24Z" fill="#3A4D57"/>
<path d="M151.51 47.95H138.2V49.66H151.51V47.95Z" fill="white"/>
<path d="M86.06 178.58C86.06 181.15 83.98 183.23 81.41 183.23C78.84 183.23 76.76 181.15 76.76 178.58C76.76 176.01 78.84 173.93 81.41 173.93C83.98 173.94 86.06 176.02 86.06 178.58Z" fill="#E6E7E8"/>
<path d="M106.45 174.44H98.15V182.74H106.45V174.44Z" fill="#E6E7E8"/>
<path d="M144.085 173.944L139.44 178.589L144.085 183.235L148.731 178.589L144.085 173.944Z" fill="#E6E7E8"/>
<path d="M123.2 174.44L127.99 182.73H118.41L123.2 174.44Z" fill="#E6E7E8"/>
<path d="M76.58 52.17L73.21 48.8L76.58 45.43L77.36 46.21L74.76 48.8L77.36 51.39L76.58 52.17Z" fill="white"/>
<path d="M118.89 38.92H106.61V40.02H118.89V38.92Z" fill="#3A4D57"/>
<path d="M154.58 38.92H148.92V40.02H154.58V38.92Z" fill="#3A4D57"/>
<path d="M147.22 38.92H144.86V40.02H147.22V38.92Z" fill="#3A4D57"/>
<path d="M72.95 38.76H71.53V40.18H72.95V38.76Z" fill="#3A4D57"/>
<path d="M75.4801 38.76H74.0601V40.18H75.4801V38.76Z" fill="#3A4D57"/>
<path d="M78.0101 38.76H76.5901V40.18H78.0101V38.76Z" fill="#3A4D57"/>
<path d="M80.54 38.76H79.12V40.18H80.54V38.76Z" fill="#3A4D57"/>
<path d="M115.53 195.2H109.96C108.09 195.2 106.57 193.68 106.57 191.81C106.57 189.94 108.09 188.42 109.96 188.42H115.53C117.4 188.42 118.92 189.94 118.92 191.81C118.93 193.68 117.41 195.2 115.53 195.2ZM109.96 189.52C108.7 189.52 107.67 190.55 107.67 191.81C107.67 193.07 108.7 194.1 109.96 194.1H115.53C116.79 194.1 117.82 193.07 117.82 191.81C117.82 190.55 116.79 189.52 115.53 189.52H109.96Z" fill="white"/>
<path d="M58.43 63.58H52.97V153.65H58.43V63.58Z" fill="#CFCFD1"/>
<path d="M55.7 63.58H52.97V153.65H55.7V63.58Z" fill="#EEEEEE"/>
<path d="M58.43 153.65H52.97V158.83H58.43V153.65Z" fill="#758789"/>
<path d="M57 162.39H54.39C53.6 162.39 52.96 161.75 52.96 160.97V158.83H58.42V160.97C58.43 161.75 57.79 162.39 57 162.39Z" fill="#EEEEEE"/>
<path d="M57.0799 58.36H54.3199L55.6999 53.06L57.0799 58.36Z" fill="#254048"/>
<path d="M58.43 63.58H52.96L54.32 58.36H57.08L58.43 63.58Z" fill="#F0F0F0"/>
<path d="M140.22 65.98H84.85V84.89H140.22V65.98Z" fill="#EBEBEB"/>
<path d="M140.65 104.32C140.65 108.58 137.2 112.02 132.95 112.02C128.69 112.02 125.25 108.57 125.25 104.32C125.25 100.07 128.69 96.62 132.95 96.62C137.2 96.62 140.65 100.07 140.65 104.32Z" fill="#C6C6C6"/>
<path d="M137.73 115.79H128.15V117.85H137.73V115.79Z" fill="#C6C6C6"/>
<path d="M140.22 122.98H125.67V124.35H140.22V122.98Z" fill="#C6C6C6"/>
<path d="M140.22 119.55H125.67V120.92H140.22V119.55Z" fill="#C6C6C6"/>
<path d="M120.45 104.32C120.45 108.58 117.01 112.02 112.75 112.02C108.49 112.02 105.05 108.57 105.05 104.32C105.05 100.07 108.49 96.62 112.75 96.62C117.01 96.62 120.45 100.07 120.45 104.32Z" fill="#54666F"/>
<path d="M117.54 115.79H107.96V117.85H117.54V115.79Z" fill="#758789"/>
<path d="M120.03 122.98H105.48V124.35H120.03V122.98Z" fill="#CFCFD1"/>
<path d="M120.03 119.55H105.48V120.92H120.03V119.55Z" fill="#CFCFD1"/>
<path d="M100.25 104.32C100.25 108.58 96.81 112.02 92.55 112.02C88.29 112.02 84.84 108.57 84.84 104.32C84.84 100.07 88.29 96.62 92.55 96.62C96.81 96.62 100.25 100.07 100.25 104.32Z" fill="#113A52"/>
<path d="M97.35 115.79H87.76V117.85H97.35V115.79Z" fill="#758789"/>
<path d="M99.83 122.98H85.28V124.35H99.83V122.98Z" fill="#CFCFD1"/>
<path d="M99.83 119.55H85.28V120.92H99.83V119.55Z" fill="#CFCFD1"/>
<path d="M108.42 88.05C108.42 88.56 108.01 88.97 107.5 88.97C107 88.97 106.59 88.56 106.59 88.05C106.59 87.55 107 87.14 107.5 87.14C108.01 87.14 108.42 87.55 108.42 88.05Z" fill="#758789"/>
<path d="M113.66 88.05C113.66 88.56 113.25 88.97 112.75 88.97C112.24 88.97 111.84 88.56 111.84 88.05C111.84 87.55 112.25 87.14 112.75 87.14C113.25 87.14 113.66 87.55 113.66 88.05Z" fill="#CFCFD1"/>
<path d="M118.92 88.05C118.92 88.56 118.51 88.97 118.01 88.97C117.5 88.97 117.09 88.56 117.09 88.05C117.09 87.55 117.5 87.14 118.01 87.14C118.5 87.14 118.92 87.55 118.92 88.05Z" fill="#758789"/>
</g>
<defs>
<clipPath id="clip0">
<rect width="222.04" height="222.21" fill="white"/>
</clipPath>
</defs>
</svg>
