<svg width="223" height="223" viewBox="0 0 223 223" fill="none" xmlns="http://www.w3.org/2000/svg">
<g clip-path="url(#clip0)">
<path d="M35.4401 149.25C36.1501 148.63 36.3601 147.63 35.9901 146.77C33.5201 141.05 29.7101 132.57 28.5601 126.28C27.6601 121.36 27.1901 116.29 27.1901 111.11C27.1901 106.07 27.6401 101.13 28.5001 96.34C28.7401 95.01 27.7201 93.79 26.3701 93.79C25.3101 93.79 24.4101 94.56 24.2301 95.6C23.3301 100.64 22.8501 105.82 22.8501 111.12C22.8501 116.57 23.3401 121.9 24.2901 127.08C25.9401 136.09 29.0901 141.57 32.0601 148.5C32.6301 149.82 34.3401 150.21 35.4401 149.25Z" fill="#EBEBEB"/>
<path d="M147.86 188.84C147.37 187.75 146.09 187.26 145 187.74C134.61 192.35 123.12 194.92 111.02 194.92C96.1101 194.92 82.1201 191.03 69.9801 184.21C58.9301 177.99 50.2301 170.54 43.1201 160.35C42.3101 159.19 40.6401 159.1 39.7201 160.17C39.0701 160.93 39.0401 162.03 39.6201 162.84C47.0901 173.13 56.7101 181.74 67.8401 188C80.6001 195.18 95.3301 199.27 111.01 199.27C123.74 199.27 135.83 196.57 146.75 191.72C147.85 191.23 148.35 189.94 147.86 188.84Z" fill="#EBEBEB"/>
<path d="M115.31 23.04C113.89 22.97 112.45 22.94 111.01 22.94C103.67 22.94 96.5501 23.84 89.7301 25.52C83.8301 26.99 78.1501 29.04 72.7801 31.63C66.7501 34.54 61.1001 38.11 55.9201 42.26C44.4901 51.42 35.3901 63.37 29.6501 77.07C29.2401 78.06 28.8401 79.06 28.4601 80.07C27.9301 81.48 28.9901 82.99 30.5001 82.99C31.4101 82.99 32.2201 82.42 32.5401 81.56C32.9001 80.61 33.2701 79.67 33.6601 78.74C39.1201 65.71 47.7701 54.35 58.6401 45.65C63.5601 41.71 68.9401 38.31 74.6701 35.54C79.7801 33.08 85.1601 31.12 90.7801 29.73C97.2601 28.13 104.03 27.27 111.01 27.27C112.38 27.27 113.75 27.3 115.1 27.37C159.49 29.5 194.82 66.17 194.82 111.09C194.82 120.81 193.17 130.14 190.13 138.82C185.95 150.74 179.16 161.43 170.44 170.19C169.79 170.84 169.13 171.48 168.46 172.11C168.02 172.52 167.77 173.1 167.77 173.7C167.77 175.61 170.05 176.59 171.45 175.28C172.15 174.62 172.84 173.95 173.52 173.26C182.69 164.03 189.84 152.79 194.23 140.25C197.43 131.12 199.17 121.31 199.17 111.09C199.18 63.85 162.01 25.28 115.31 23.04Z" fill="#EBEBEB"/>
<path d="M111.01 0C95.74 0 80.64 3.15 66.66 9.23C64.56 10.14 63.63 12.62 64.63 14.68C65.57 16.62 67.87 17.5 69.85 16.64C82.46 11.14 96.38 8.08 111.01 8.08C112.7 8.08 114.37 8.12 116.04 8.2C169.31 10.76 211.97 53.79 213.95 107.21C214.03 109.38 215.82 111.09 217.99 111.09C220.29 111.09 222.12 109.17 222.04 106.87C219.78 47.85 170.55 0 111.01 0Z" fill="#EBEBEB"/>
<path d="M184.05 183.73C165.39 202.5 139.56 214.11 111 214.11C61.7801 214.11 20.6201 179.59 10.4201 133.43C9.96011 131.35 7.92011 130.01 5.82011 130.4L5.71011 130.42C3.48011 130.83 2.06011 133.01 2.55011 135.23C13.7801 185.67 58.9901 222.21 111 222.21C156.69 222.21 197.79 194.02 214.41 151.75C215.24 149.64 214.17 147.25 212.02 146.5L211.94 146.47C209.9 145.76 207.69 146.8 206.9 148.81C201.71 162 193.88 173.86 184.05 183.73Z" fill="#EBEBEB"/>
<path d="M55.7 23.86C52.82 23.86 50.49 21.53 50.49 18.65V18.18C50.49 15.3 52.82 12.97 55.7 12.97C58.58 12.97 60.91 15.3 60.91 18.18V18.65C60.91 21.53 58.58 23.86 55.7 23.86Z" fill="#EBEBEB"/>
<path d="M157.56 187.17C154.68 187.17 152.35 184.84 152.35 181.96V181.49C152.35 178.61 154.68 176.28 157.56 176.28C160.44 176.28 162.77 178.61 162.77 181.49V181.96C162.77 184.83 160.44 187.17 157.56 187.17Z" fill="#EBEBEB"/>
<path d="M216.34 133.64C213.46 133.64 211.13 131.31 211.13 128.43V127.96C211.13 125.08 213.46 122.75 216.34 122.75C219.22 122.75 221.55 125.08 221.55 127.96V128.43C221.55 131.31 219.22 133.64 216.34 133.64Z" fill="#EBEBEB"/>
<path d="M5.21 123.82C2.33 123.82 0 121.49 0 118.61V118.14C0 115.26 2.33 112.93 5.21 112.93C8.09 112.93 10.42 115.26 10.42 118.14V118.61C10.43 121.48 8.09 123.82 5.21 123.82Z" fill="#EBEBEB"/>
<path d="M60.21 83.08C60.99 81.66 61.57 80.09 61.94 78.41C61.3 77.84 60.63 77.31 59.9 76.84C58.37 77.63 57 78.6 55.83 79.72C55.26 79.47 54.68 79.26 54.08 79.1C53.48 78.94 52.87 78.83 52.25 78.76C51.79 77.21 51.1 75.69 50.16 74.24C49.3 74.28 48.45 74.4 47.61 74.58C47.09 76.22 46.81 77.87 46.77 79.49C46.19 79.71 45.63 79.98 45.09 80.29C44.56 80.6 44.04 80.96 43.56 81.35C42.14 80.57 40.57 79.99 38.88 79.62C38.31 80.26 37.78 80.94 37.32 81.66C38.11 83.19 39.08 84.56 40.2 85.73C39.95 86.3 39.75 86.89 39.58 87.48C39.42 88.08 39.31 88.69 39.24 89.31C37.69 89.77 36.17 90.47 34.72 91.4C34.76 92.26 34.88 93.11 35.06 93.95C36.7 94.47 38.35 94.75 39.97 94.79C40.2 95.37 40.46 95.93 40.77 96.47C41.09 97 41.44 97.52 41.83 98C41.05 99.42 40.47 100.99 40.1 102.67C40.74 103.24 41.42 103.77 42.14 104.24C43.67 103.45 45.04 102.48 46.21 101.36C46.78 101.61 47.37 101.82 47.96 101.98C48.56 102.13 49.17 102.25 49.79 102.32C50.25 103.87 50.94 105.4 51.87 106.84C52.73 106.8 53.58 106.68 54.42 106.5C54.94 104.86 55.22 103.21 55.25 101.59C55.83 101.37 56.39 101.1 56.93 100.79C57.47 100.48 57.98 100.12 58.46 99.73C59.88 100.51 61.45 101.09 63.13 101.46C63.7 100.82 64.23 100.14 64.7 99.42C63.91 97.89 62.94 96.52 61.82 95.35C62.07 94.78 62.27 94.2 62.44 93.6C62.59 93 62.71 92.39 62.78 91.77C64.33 91.31 65.85 90.61 67.3 89.68C67.26 88.82 67.14 87.97 66.96 87.13C65.32 86.61 63.67 86.33 62.05 86.29C61.83 85.71 61.56 85.15 61.25 84.62C60.96 84.07 60.61 83.56 60.21 83.08ZM58.44 92.51C57.92 94.47 56.62 96.16 54.87 97.17C53.12 98.19 51 98.47 49.05 97.94C47.09 97.42 45.4 96.12 44.39 94.37C43.37 92.62 43.09 90.51 43.62 88.55C44.14 86.59 45.44 84.9 47.19 83.89C48.94 82.88 51.05 82.59 53.01 83.12C54.97 83.63 56.66 84.93 57.67 86.69C58.68 88.44 58.96 90.55 58.44 92.51Z" fill="#758789"/>
<path d="M54.3199 86.23C56.6899 88.05 57.1399 91.45 55.3199 93.82C53.4999 96.19 50.1099 96.64 47.7299 94.82C45.3599 93 44.9099 89.61 46.7299 87.23C48.5499 84.86 51.9499 84.41 54.3199 86.23Z" fill="#758789"/>
<path d="M63.9999 59.42C63.7199 59.01 63.3899 58.62 63.0299 58.27C62.6699 57.92 62.2699 57.61 61.8399 57.34L61.7399 53.22L59.5299 52.68L57.5299 56.29C57.0299 56.33 56.5299 56.42 56.0499 56.56C55.5699 56.7 55.0999 56.89 54.6599 57.12L51.0399 55.15L49.4699 56.79L51.5899 60.33C51.3699 60.78 51.1999 61.26 51.0799 61.74C50.9599 62.23 50.8899 62.73 50.8699 63.23L47.3499 65.37L47.9899 67.56L52.1099 67.49C52.3899 67.91 52.7199 68.29 53.0799 68.64C53.4399 68.99 53.8399 69.3 54.2699 69.56L54.3699 73.68L56.5799 74.23L58.5799 70.62C59.0799 70.58 59.5799 70.49 60.0599 70.35C60.5399 70.21 61.0099 70.02 61.4499 69.78L65.0699 71.75L66.6399 70.11L64.5199 66.57C64.7399 66.12 64.9099 65.64 65.0299 65.16C65.1499 64.67 65.2199 64.17 65.2299 63.67L68.7499 61.53L68.1099 59.34L63.9999 59.42ZM62.6899 64.61C62.3199 66.22 60.9899 67.61 59.3899 68.05C57.7699 68.53 55.9499 68.08 54.7399 66.91C53.5199 65.76 52.9899 63.95 53.4099 62.31C53.7799 60.69 55.1199 59.3 56.7099 58.87C58.3299 58.39 60.1599 58.83 61.3599 60.01C62.5799 61.16 63.1099 62.97 62.6899 64.61Z" fill="#C6C6C6"/>
<path d="M60.1799 61.23C61.4099 62.41 61.4499 64.36 60.2699 65.59C59.0899 66.82 57.1399 66.86 55.9099 65.68C54.6799 64.5 54.6399 62.55 55.8199 61.32C56.9999 60.1 58.9499 60.06 60.1799 61.23Z" fill="#C6C6C6"/>
<path d="M144.53 69.82H70.8999V172.9H144.53V69.82Z" fill="#EEEEEE"/>
<path d="M85.6299 55.09V69.82H144.53V158.18H159.26V55.09H85.6299Z" fill="#EEEEEE"/>
<path d="M122.047 150.501C123.91 142.582 119 134.653 111.082 132.79C103.163 130.927 95.2332 135.836 93.3702 143.755C91.5073 151.673 96.4165 159.603 104.335 161.466C112.254 163.329 120.184 158.42 122.047 150.501Z" fill="white"/>
<path d="M144.53 174.87H70.8999C69.8199 174.87 68.9399 173.99 68.9399 172.91V69.82C68.9399 68.74 69.8199 67.86 70.8999 67.86H144.53C145.61 67.86 146.49 68.74 146.49 69.82V172.9C146.49 173.99 145.61 174.87 144.53 174.87ZM72.8599 170.94H142.57V71.78H72.8599V170.94Z" fill="#113A52"/>
<path d="M159.26 160.14H144.53C143.45 160.14 142.57 159.26 142.57 158.18V71.78H85.6299C84.5499 71.78 83.6699 70.9 83.6699 69.82V55.09C83.6699 54.01 84.5499 53.13 85.6299 53.13H159.26C160.34 53.13 161.22 54.01 161.22 55.09V158.17C161.22 159.26 160.34 160.14 159.26 160.14ZM146.49 156.22H157.29V57.06H87.5899V67.86H144.53C145.61 67.86 146.49 68.74 146.49 69.82V156.22Z" fill="#113A52"/>
<path d="M137.16 84.55H78.26V88.23H137.16V84.55Z" fill="#113A52"/>
<path d="M137.16 95.59H78.26V99.27H137.16V95.59Z" fill="#113A52"/>
<path d="M137.16 106.64H78.26V110.32H137.16V106.64Z" fill="#113A52"/>
<path d="M122.44 117.68H78.26V121.36H122.44V117.68Z" fill="#113A52"/>
<path d="M105.11 154.04L98.52 147.44L101.29 144.67L105.11 148.49L114.14 139.46L116.91 142.24L105.11 154.04Z" fill="#113A52"/>
</g>
<defs>
<clipPath id="clip0">
<rect width="222.04" height="222.21" fill="white"/>
</clipPath>
</defs>
</svg>
