<svg width="373" height="167" viewBox="0 0 373 167" fill="none" xmlns="http://www.w3.org/2000/svg">
<rect x="238.657" y="52.4624" width="62.1328" height="23.7234" rx="11.8617" transform="rotate(90 238.657 52.4624)" fill="black" fill-opacity="0.08"/>
<rect x="111.489" y="51.9638" width="62.1328" height="23.7234" rx="11.8617" transform="rotate(90 111.489 51.9638)" fill="black" fill-opacity="0.08"/>
<rect x="87.7653" y="19.2029" width="23.7234" height="23.7234" rx="11.8617" fill="black" fill-opacity="0.08"/>
<rect x="87.7653" y="123.134" width="23.7234" height="23.7234" rx="11.8617" fill="black" fill-opacity="0.08"/>
<rect x="67.7947" y="68.9196" width="62.1328" height="23.7234" rx="11.8617" transform="rotate(90 67.7947 68.9196)" fill="black" fill-opacity="0.08"/>
<rect x="44.0713" y="36.1587" width="23.7234" height="23.7234" rx="11.8617" fill="black" fill-opacity="0.08"/>
<rect x="329.306" y="35.5065" width="62.1328" height="23.7234" rx="11.8617" transform="rotate(90 329.306 35.5065)" fill="black" fill-opacity="0.08"/>
<rect x="305.583" y="106.769" width="23.7234" height="23.7234" rx="11.8617" fill="black" fill-opacity="0.08"/>
<rect x="265.802" y="55.071" width="23.7234" height="23.7234" rx="11.8617" fill="black" fill-opacity="0.08"/>
<rect x="265.802" y="87.6783" width="23.7234" height="23.7234" rx="11.8617" fill="black" fill-opacity="0.08"/>
<rect x="175.153" y="71.3747" width="23.7234" height="23.7234" rx="11.8617" fill="black" fill-opacity="0.08"/>
<rect x="155.182" y="104.136" width="62.1328" height="23.7234" rx="11.8617" transform="rotate(90 155.182 104.136)" fill="black" fill-opacity="0.08"/>
<rect x="155.182" y="0.290573" width="62.1328" height="23.7234" rx="11.8617" transform="rotate(90 155.182 0.290573)" fill="black" fill-opacity="0.08"/>
<rect x="131.459" y="71.3747" width="23.7234" height="23.7234" rx="11.8617" fill="black" fill-opacity="0.08"/>
<rect x="373" y="71.3747" width="62.1328" height="23.7234" rx="11.8617" transform="rotate(90 373 71.3747)" fill="black" fill-opacity="0.08"/>
<rect x="373" y="0.290573" width="62.1328" height="23.7234" rx="11.8617" transform="rotate(90 373 0.290573)" fill="black" fill-opacity="0.08"/>
<rect x="349.276" y="142.638" width="23.7234" height="23.7234" rx="11.8617" fill="black" fill-opacity="0.08"/>
<rect x="24.101" y="16.5942" width="62.1328" height="23.7234" rx="11.8617" transform="rotate(90 24.101 16.5942)" fill="black" fill-opacity="0.08"/>
<rect x="24.101" y="87.5248" width="62.1328" height="23.7234" rx="11.8617" transform="rotate(90 24.101 87.5248)" fill="black" fill-opacity="0.08"/>
</svg>
