<svg width="299" height="160" viewBox="0 0 299 160" fill="none" xmlns="http://www.w3.org/2000/svg">
<rect x="99.0475" y="55.0809" width="49.8847" height="19.0469" rx="9.52345" transform="rotate(90 99.0475 55.0809)" fill="black" fill-opacity="0.08"/>
<rect x="80.0005" y="28.7781" width="19.0469" height="19.0469" rx="9.52345" fill="black" fill-opacity="0.08"/>
<rect x="80.0005" y="112.222" width="19.0469" height="19.0469" rx="9.52345" fill="black" fill-opacity="0.08"/>
<rect x="259.009" y="55.0809" width="49.8847" height="19.0469" rx="9.52345" transform="rotate(90 259.009 55.0809)" fill="black" fill-opacity="0.08"/>
<rect x="239.964" y="28.7781" width="19.0469" height="19.0469" rx="9.52345" fill="black" fill-opacity="0.08"/>
<rect x="239.963" y="112.222" width="19.0469" height="19.0469" rx="9.52345" fill="black" fill-opacity="0.08"/>
<rect x="179.029" y="68.1708" width="49.8847" height="19.0469" rx="9.52345" transform="rotate(90 179.029 68.1708)" fill="black" fill-opacity="0.08"/>
<rect x="159.982" y="41.8679" width="19.0469" height="19.0469" rx="9.52345" fill="black" fill-opacity="0.08"/>
<rect x="59.0566" y="68.1708" width="49.8847" height="19.0469" rx="9.52345" transform="rotate(90 59.0566 68.1708)" fill="black" fill-opacity="0.08"/>
<rect x="40.0098" y="41.8679" width="19.0469" height="19.0469" rx="9.52345" fill="black" fill-opacity="0.08"/>
<rect x="279.953" y="96.9885" width="19.0469" height="19.0469" rx="9.52345" fill="black" fill-opacity="0.08"/>
<rect x="279.953" y="70.6655" width="19.0469" height="19.0469" rx="9.52345" fill="black" fill-opacity="0.08"/>
<rect x="279.953" y="44.4858" width="19.0469" height="19.0469" rx="9.52345" fill="black" fill-opacity="0.08"/>
<rect x="139.038" y="55.4812" width="49.8847" height="19.0469" rx="9.52345" transform="rotate(90 139.038 55.4812)" fill="black" fill-opacity="0.08"/>
<rect x="19.0663" y="26.6837" width="49.8847" height="19.0469" rx="9.52345" transform="rotate(90 19.0663 26.6837)" fill="black" fill-opacity="0.08"/>
<rect x="0.0192871" y="0.504089" width="19.0469" height="19.0469" rx="9.52345" fill="black" fill-opacity="0.08"/>
<rect x="0.0192871" y="140.827" width="19.0469" height="19.0469" rx="9.52345" fill="black" fill-opacity="0.08"/>
<rect x="19.0663" y="83.6318" width="49.8847" height="19.0469" rx="9.52345" transform="rotate(90 19.0663 83.6318)" fill="black" fill-opacity="0.08"/>
<rect x="199.972" y="70.6653" width="19.0469" height="19.0469" rx="9.52345" fill="black" fill-opacity="0.08"/>
</svg>
