<svg width="495" height="305" viewBox="0 0 495 305" fill="none" xmlns="http://www.w3.org/2000/svg">
<rect x="189.132" y="50.2355" width="95.2741" height="36.3774" rx="18.1887" transform="rotate(90 189.132 50.2355)" fill="black" fill-opacity="0.08"/>
<rect x="152.755" width="36.3774" height="36.3774" rx="18.1887" fill="black" fill-opacity="0.08"/>
<rect x="152.755" y="159.368" width="36.3774" height="36.3774" rx="18.1887" fill="black" fill-opacity="0.08"/>
<rect x="418.379" y="50.2355" width="95.2741" height="36.3774" rx="18.1887" transform="rotate(90 418.379 50.2355)" fill="black" fill-opacity="0.08"/>
<rect x="382.002" width="36.3774" height="36.3774" rx="18.1887" fill="black" fill-opacity="0.08"/>
<rect x="382.002" y="159.368" width="36.3774" height="36.3774" rx="18.1887" fill="black" fill-opacity="0.08"/>
<rect x="112.755" y="50.2355" width="95.2741" height="36.3774" rx="18.1887" transform="rotate(90 112.755 50.2355)" fill="black" fill-opacity="0.08"/>
<rect x="76.3774" width="36.3774" height="36.3774" rx="18.1887" fill="black" fill-opacity="0.08"/>
<rect x="458.002" y="100.274" width="36.3774" height="36.3774" rx="18.1887" fill="black" fill-opacity="0.08"/>
<rect x="458.002" y="50" width="36.3774" height="36.3774" rx="18.1887" fill="black" fill-opacity="0.08"/>
<rect x="458.002" width="36.3774" height="36.3774" rx="18.1887" fill="black" fill-opacity="0.08"/>
<rect x="36.3787" width="95.2741" height="36.3774" rx="18.1887" transform="rotate(90 36.3787 0)" fill="black" fill-opacity="0.08"/>
<rect x="0.00180054" y="109.274" width="36.3774" height="36.3774" rx="18.1887" fill="black" fill-opacity="0.08"/>
<rect y="268" width="36.3774" height="36.3774" rx="18.1887" fill="black" fill-opacity="0.08"/>
<rect x="36.3774" y="158.765" width="95.2741" height="36.3774" rx="18.1887" transform="rotate(90 36.3774 158.765)" fill="black" fill-opacity="0.08"/>
<rect x="229.132" width="36.3774" height="36.3774" rx="18.1887" fill="black" fill-opacity="0.08"/>
<rect x="306.002" width="36.3774" height="36.3774" rx="18.1887" fill="black" fill-opacity="0.08"/>
</svg>
