<svg width="223" height="223" viewBox="0 0 223 223" fill="none" xmlns="http://www.w3.org/2000/svg">
<g clip-path="url(#clip0)">
<path d="M35.44 149.25C36.15 148.63 36.36 147.63 35.99 146.77C33.52 141.05 29.71 132.57 28.56 126.28C27.66 121.36 27.19 116.29 27.19 111.11C27.19 106.07 27.64 101.13 28.5 96.34C28.74 95.01 27.72 93.79 26.37 93.79C25.31 93.79 24.41 94.56 24.23 95.6C23.33 100.64 22.85 105.82 22.85 111.12C22.85 116.57 23.34 121.9 24.29 127.08C25.94 136.09 29.09 141.57 32.06 148.5C32.63 149.82 34.34 150.21 35.44 149.25Z" fill="#EBEBEB"/>
<path d="M147.86 188.84C147.37 187.75 146.09 187.26 145 187.74C134.61 192.35 123.12 194.92 111.02 194.92C96.1101 194.92 82.1201 191.03 69.9801 184.21C58.9301 177.99 50.2301 170.54 43.1201 160.35C42.3101 159.19 40.6401 159.1 39.7201 160.17C39.0701 160.93 39.0401 162.03 39.6201 162.84C47.0901 173.13 56.7101 181.74 67.8401 188C80.6001 195.18 95.3301 199.27 111.01 199.27C123.74 199.27 135.83 196.57 146.75 191.72C147.85 191.23 148.35 189.94 147.86 188.84Z" fill="#EBEBEB"/>
<path d="M115.31 23.04C113.89 22.97 112.45 22.94 111.01 22.94C103.67 22.94 96.55 23.84 89.73 25.52C83.83 26.99 78.15 29.04 72.78 31.63C66.75 34.54 61.1 38.11 55.92 42.26C44.49 51.42 35.39 63.37 29.65 77.07C29.24 78.06 28.84 79.06 28.46 80.07C27.93 81.48 28.99 82.99 30.5 82.99C31.41 82.99 32.22 82.42 32.54 81.56C32.9 80.61 33.27 79.67 33.66 78.74C39.12 65.71 47.77 54.35 58.64 45.65C63.56 41.71 68.94 38.31 74.67 35.54C79.78 33.08 85.16 31.12 90.78 29.73C97.26 28.13 104.03 27.27 111.01 27.27C112.38 27.27 113.75 27.3 115.1 27.37C159.49 29.5 194.82 66.17 194.82 111.09C194.82 120.81 193.17 130.14 190.13 138.82C185.95 150.74 179.16 161.43 170.44 170.19C169.79 170.84 169.13 171.48 168.46 172.11C168.02 172.52 167.77 173.1 167.77 173.7C167.77 175.61 170.05 176.59 171.45 175.28C172.15 174.62 172.84 173.95 173.52 173.26C182.69 164.03 189.84 152.79 194.23 140.25C197.43 131.12 199.17 121.31 199.17 111.09C199.18 63.85 162.01 25.28 115.31 23.04Z" fill="#EBEBEB"/>
<path d="M111.01 0C95.74 0 80.64 3.15 66.66 9.23C64.56 10.14 63.63 12.62 64.63 14.68C65.57 16.62 67.87 17.5 69.85 16.64C82.46 11.14 96.38 8.08 111.01 8.08C112.7 8.08 114.37 8.12 116.04 8.2C169.31 10.76 211.97 53.79 213.95 107.21C214.03 109.38 215.82 111.09 217.99 111.09C220.29 111.09 222.12 109.17 222.04 106.87C219.78 47.85 170.55 0 111.01 0Z" fill="#EBEBEB"/>
<path d="M184.05 183.73C165.39 202.5 139.56 214.11 111 214.11C61.78 214.11 20.62 179.59 10.42 133.43C9.95999 131.35 7.91999 130.01 5.81999 130.4L5.70999 130.42C3.47999 130.83 2.05999 133.01 2.54999 135.23C13.78 185.67 58.99 222.21 111 222.21C156.69 222.21 197.79 194.02 214.41 151.75C215.24 149.64 214.17 147.25 212.02 146.5L211.94 146.47C209.9 145.76 207.69 146.8 206.9 148.81C201.71 162 193.88 173.86 184.05 183.73Z" fill="#EBEBEB"/>
<path d="M55.7 23.86C52.82 23.86 50.49 21.53 50.49 18.65V18.18C50.49 15.3 52.82 12.97 55.7 12.97C58.58 12.97 60.91 15.3 60.91 18.18V18.65C60.91 21.53 58.58 23.86 55.7 23.86Z" fill="#EBEBEB"/>
<path d="M157.56 187.17C154.68 187.17 152.35 184.84 152.35 181.96V181.49C152.35 178.61 154.68 176.28 157.56 176.28C160.44 176.28 162.77 178.61 162.77 181.49V181.96C162.77 184.83 160.44 187.17 157.56 187.17Z" fill="#EBEBEB"/>
<path d="M216.34 133.64C213.46 133.64 211.13 131.31 211.13 128.43V127.96C211.13 125.08 213.46 122.75 216.34 122.75C219.22 122.75 221.55 125.08 221.55 127.96V128.43C221.55 131.31 219.22 133.64 216.34 133.64Z" fill="#EBEBEB"/>
<path d="M5.21 123.82C2.33 123.82 0 121.49 0 118.61V118.14C0 115.26 2.33 112.93 5.21 112.93C8.09 112.93 10.42 115.26 10.42 118.14V118.61C10.43 121.48 8.09 123.82 5.21 123.82Z" fill="#EBEBEB"/>
<path d="M150.35 93.79C150.35 69.15 129.02 49.5 103.82 52.28C84.84 54.38 69.47 69.52 67.13 88.47C65.14 104.57 72.33 119.15 84.16 127.69C92.92 134.01 98.13 144.12 98.13 154.92V156.45H119.02V154.92C119.02 143.95 124.55 133.92 133.37 127.41C143.67 119.8 150.35 107.58 150.35 93.79Z" fill="#EEEEEE"/>
<path d="M120.78 158.21H96.38V154.92C96.38 144.75 91.43 135.1 83.14 129.12C70.23 119.81 63.43 104.15 65.39 88.26C67.82 68.58 83.9 52.71 103.63 50.53C116.2 49.15 128.27 52.98 137.61 61.35C146.82 69.6 152.11 81.43 152.11 93.79C152.11 107.55 145.5 120.64 134.42 128.83C125.75 135.23 120.78 144.74 120.78 154.93V158.21ZM99.89 154.69H117.26C117.33 143.47 122.82 133.02 132.32 126C142.51 118.48 148.59 106.43 148.59 93.79C148.59 82.43 143.73 71.56 135.26 63.97C126.67 56.28 115.58 52.75 104.01 54.02C85.88 56.02 71.1 70.6 68.87 88.68C67.07 103.3 73.32 117.69 85.18 126.25C94.33 132.86 99.82 143.47 99.89 154.69Z" fill="#113A52"/>
<path d="M108.58 46.81C107.61 46.81 106.82 46.02 106.82 45.05V38.09C106.82 37.12 107.61 36.33 108.58 36.33C109.55 36.33 110.34 37.12 110.34 38.09V45.05C110.33 46.02 109.55 46.81 108.58 46.81Z" fill="#113A52"/>
<path d="M89.93 50.52C89.24 50.52 88.59 50.11 88.31 49.43L85.64 43C85.27 42.1 85.69 41.08 86.59 40.7C87.48 40.33 88.51 40.75 88.89 41.65L91.56 48.08C91.93 48.98 91.51 50 90.61 50.38C90.38 50.48 90.15 50.52 89.93 50.52Z" fill="#113A52"/>
<path d="M74.11 61.08C73.66 61.08 73.21 60.91 72.87 60.57L67.95 55.65C67.26 54.96 67.26 53.85 67.95 53.17C68.64 52.49 69.75 52.48 70.43 53.17L75.35 58.09C76.04 58.78 76.04 59.89 75.35 60.57C75.01 60.91 74.56 61.08 74.11 61.08Z" fill="#113A52"/>
<path d="M63.55 76.9C63.33 76.9 63.1 76.86 62.88 76.77L56.45 74.1C55.55 73.73 55.13 72.7 55.5 71.8C55.87 70.9 56.9 70.48 57.8 70.85L64.23 73.52C65.13 73.89 65.55 74.92 65.18 75.82C64.89 76.49 64.24 76.9 63.55 76.9Z" fill="#113A52"/>
<path d="M59.84 95.55H52.88C51.91 95.55 51.12 94.76 51.12 93.79C51.12 92.82 51.91 92.03 52.88 92.03H59.84C60.81 92.03 61.6 92.82 61.6 93.79C61.6 94.76 60.81 95.55 59.84 95.55Z" fill="#113A52"/>
<path d="M57.12 116.86C56.43 116.86 55.78 116.45 55.5 115.77C55.13 114.87 55.55 113.85 56.45 113.47L62.88 110.8C63.78 110.43 64.8 110.86 65.18 111.75C65.55 112.65 65.13 113.67 64.23 114.05L57.8 116.72C57.57 116.82 57.34 116.86 57.12 116.86Z" fill="#113A52"/>
<path d="M69.19 134.93C68.74 134.93 68.29 134.76 67.95 134.42C67.26 133.73 67.26 132.62 67.95 131.94L72.87 127.02C73.56 126.33 74.67 126.33 75.35 127.02C76.04 127.71 76.04 128.82 75.35 129.5L70.43 134.42C70.09 134.76 69.64 134.93 69.19 134.93Z" fill="#113A52"/>
<path d="M147.96 134.93C147.51 134.93 147.06 134.76 146.72 134.42L141.8 129.5C141.11 128.81 141.11 127.7 141.8 127.02C142.49 126.34 143.6 126.33 144.28 127.02L149.2 131.94C149.89 132.63 149.89 133.74 149.2 134.42C148.86 134.76 148.41 134.93 147.96 134.93Z" fill="#113A52"/>
<path d="M160.04 116.86C159.82 116.86 159.59 116.82 159.37 116.73L152.94 114.06C152.04 113.69 151.62 112.66 151.99 111.76C152.36 110.86 153.38 110.44 154.29 110.81L160.72 113.48C161.62 113.85 162.04 114.88 161.67 115.78C161.38 116.45 160.73 116.86 160.04 116.86Z" fill="#113A52"/>
<path d="M164.28 95.55H157.32C156.35 95.55 155.56 94.76 155.56 93.79C155.56 92.82 156.35 92.03 157.32 92.03H164.28C165.25 92.03 166.04 92.82 166.04 93.79C166.04 94.76 165.25 95.55 164.28 95.55Z" fill="#113A52"/>
<path d="M153.6 76.9C152.91 76.9 152.26 76.49 151.98 75.81C151.61 74.91 152.03 73.89 152.93 73.51L159.36 70.84C160.25 70.47 161.28 70.89 161.66 71.79C162.03 72.69 161.61 73.71 160.71 74.09L154.28 76.76C154.06 76.85 153.83 76.9 153.6 76.9Z" fill="#113A52"/>
<path d="M143.04 61.08C142.59 61.08 142.14 60.91 141.8 60.57C141.11 59.88 141.11 58.77 141.8 58.09L146.72 53.17C147.41 52.48 148.52 52.48 149.2 53.17C149.89 53.86 149.89 54.97 149.2 55.65L144.28 60.57C143.94 60.91 143.49 61.08 143.04 61.08Z" fill="#113A52"/>
<path d="M127.23 50.52C127.01 50.52 126.78 50.48 126.56 50.39C125.66 50.02 125.24 48.99 125.61 48.09L128.28 41.66C128.65 40.76 129.68 40.34 130.58 40.71C131.48 41.08 131.9 42.11 131.53 43.01L128.86 49.44C128.57 50.11 127.92 50.52 127.23 50.52Z" fill="#113A52"/>
<path d="M108.58 158.21C107.8 158.21 107.11 157.7 106.89 156.95L89.4801 97.77C89.2801 97.08 89.52 96.33 90.09 95.88C90.66 95.44 91.4501 95.39 92.0701 95.76L108.57 105.66L125.07 95.76C125.69 95.39 126.48 95.43 127.05 95.88C127.62 96.32 127.87 97.07 127.66 97.77L110.25 156.95C110.04 157.69 109.36 158.21 108.58 158.21ZM94.13 101.09L108.58 150.22L123.03 101.09L109.48 109.22C108.92 109.55 108.23 109.55 107.67 109.22L94.13 101.09Z" fill="white"/>
<path d="M117.04 177.34H100.12C99.03 177.34 98.14 176.45 98.14 175.36V156.45H119.03V175.36C119.02 176.45 118.13 177.34 117.04 177.34Z" fill="#113A52"/>
<path d="M115.54 179.09H101.62C98.73 179.09 96.38 176.74 96.38 173.85V154.69H120.78V173.85C120.78 176.74 118.43 179.09 115.54 179.09ZM99.89 158.21V173.86C99.89 174.81 100.66 175.58 101.61 175.58H115.53C116.48 175.58 117.25 174.81 117.25 173.86V158.21H99.89Z" fill="#113A52"/>
<path d="M122.5 163.41H94.65V166.89H122.5V163.41Z" fill="#416175"/>
<path d="M122.5 156.45H94.65V159.93H122.5V156.45Z" fill="#416175"/>
<path d="M122.5 170.37H94.65V173.85H122.5V170.37Z" fill="#416175"/>
</g>
<defs>
<clipPath id="clip0">
<rect width="222.04" height="222.21" fill="white"/>
</clipPath>
</defs>
</svg>
