<svg width="32" height="32" viewBox="0 0 32 32" fill="none" xmlns="http://www.w3.org/2000/svg">
<path fill-rule="evenodd" clip-rule="evenodd" d="M30 16C30 12.287 28.525 8.72602 25.8995 6.10051C23.274 3.475 19.713 2 16 2C12.287 2 8.72602 3.475 6.1005 6.10051C3.47499 8.72601 2 12.287 2 16C2 19.713 3.47499 23.274 6.1005 25.8995C8.72601 28.525 12.287 30 16 30C19.713 30 23.274 28.525 25.8995 25.8995C28.525 23.274 30 19.713 30 16ZM-2.41593e-06 16C-2.04496e-06 11.7565 1.68571 7.68687 4.68629 4.68629C7.68687 1.68571 11.7565 1.37609e-07 16 5.08584e-07C20.2435 8.79559e-07 24.3131 1.68571 27.3137 4.68629C30.3143 7.68687 32 11.7565 32 16C32 20.2435 30.3143 24.3131 27.3137 27.3137C24.3131 30.3143 20.2435 32 16 32C11.7565 32 7.68687 30.3143 4.68629 27.3137C1.68571 24.3131 -2.78691e-06 20.2435 -2.41593e-06 16ZM15 23C15 23.2652 15.1054 23.5196 15.2929 23.7071C15.4804 23.8946 15.7348 24 16 24C16.2652 24 16.5196 23.8946 16.7071 23.7071C16.8946 23.5196 17 23.2652 17 23L17 11.414L21.292 15.708C21.4798 15.8958 21.7344 16.0013 22 16.0013C22.2656 16.0013 22.5202 15.8958 22.708 15.708C22.8958 15.5202 23.0013 15.2656 23.0013 15C23.0013 14.7344 22.8958 14.4798 22.708 14.292L16.708 8.292C16.6151 8.19887 16.5048 8.12499 16.3833 8.07458C16.2618 8.02416 16.1315 7.99821 16 7.99821C15.8685 7.99821 15.7382 8.02416 15.6167 8.07458C15.4952 8.12499 15.3849 8.19887 15.292 8.292L9.292 14.292C9.10422 14.4798 8.99874 14.7344 8.99874 15C8.99874 15.2656 9.10422 15.5202 9.292 15.708C9.47977 15.8958 9.73445 16.0013 10 16.0013C10.2656 16.0013 10.5202 15.8958 10.708 15.708L15 11.414L15 23Z" fill="white"/>
</svg>
