<svg width="223" height="223" viewBox="0 0 223 223" fill="none" xmlns="http://www.w3.org/2000/svg">
<g clip-path="url(#clip0)">
<path d="M35.44 149.25C36.15 148.63 36.36 147.63 35.99 146.77C33.52 141.05 29.71 132.57 28.56 126.28C27.66 121.36 27.19 116.29 27.19 111.11C27.19 106.07 27.64 101.13 28.5 96.34C28.74 95.01 27.72 93.79 26.37 93.79C25.31 93.79 24.41 94.56 24.23 95.6C23.33 100.64 22.85 105.82 22.85 111.12C22.85 116.57 23.34 121.9 24.29 127.08C25.94 136.09 29.09 141.57 32.06 148.5C32.63 149.82 34.34 150.21 35.44 149.25Z" fill="#EBEBEB"/>
<path d="M147.86 188.84C147.37 187.75 146.09 187.26 145 187.74C134.61 192.35 123.12 194.92 111.02 194.92C96.1101 194.92 82.1201 191.03 69.9801 184.21C58.9301 177.99 50.2301 170.54 43.1201 160.35C42.3101 159.19 40.6401 159.1 39.7201 160.17C39.0701 160.93 39.0401 162.03 39.6201 162.84C47.0901 173.13 56.7101 181.74 67.8401 188C80.6001 195.18 95.3301 199.27 111.01 199.27C123.74 199.27 135.83 196.57 146.75 191.72C147.85 191.23 148.35 189.94 147.86 188.84Z" fill="#EBEBEB"/>
<path d="M115.31 23.04C113.89 22.97 112.45 22.94 111.01 22.94C103.67 22.94 96.55 23.84 89.73 25.52C83.83 26.99 78.15 29.04 72.78 31.63C66.75 34.54 61.1 38.11 55.92 42.26C44.49 51.42 35.39 63.37 29.65 77.07C29.24 78.06 28.84 79.06 28.46 80.07C27.93 81.48 28.99 82.99 30.5 82.99C31.41 82.99 32.22 82.42 32.54 81.56C32.9 80.61 33.27 79.67 33.66 78.74C39.12 65.71 47.77 54.35 58.64 45.65C63.56 41.71 68.94 38.31 74.67 35.54C79.78 33.08 85.16 31.12 90.78 29.73C97.26 28.13 104.03 27.27 111.01 27.27C112.38 27.27 113.75 27.3 115.1 27.37C159.49 29.5 194.82 66.17 194.82 111.09C194.82 120.81 193.17 130.14 190.13 138.82C185.95 150.74 179.16 161.43 170.44 170.19C169.79 170.84 169.13 171.48 168.46 172.11C168.02 172.52 167.77 173.1 167.77 173.7C167.77 175.61 170.05 176.59 171.45 175.28C172.15 174.62 172.84 173.95 173.52 173.26C182.69 164.03 189.84 152.79 194.23 140.25C197.43 131.12 199.17 121.31 199.17 111.09C199.18 63.85 162.01 25.28 115.31 23.04Z" fill="#EBEBEB"/>
<path d="M111.01 0C95.74 0 80.64 3.15 66.66 9.23C64.56 10.14 63.63 12.62 64.63 14.68C65.57 16.62 67.87 17.5 69.85 16.64C82.46 11.14 96.38 8.08 111.01 8.08C112.7 8.08 114.37 8.12 116.04 8.2C169.31 10.76 211.97 53.79 213.95 107.21C214.03 109.38 215.82 111.09 217.99 111.09C220.29 111.09 222.12 109.17 222.04 106.87C219.78 47.85 170.55 0 111.01 0Z" fill="#EBEBEB"/>
<path d="M184.05 183.73C165.39 202.5 139.56 214.11 111 214.11C61.78 214.11 20.62 179.59 10.42 133.43C9.95999 131.35 7.91999 130.01 5.81999 130.4L5.70999 130.42C3.47999 130.83 2.05999 133.01 2.54999 135.23C13.78 185.67 58.99 222.21 111 222.21C156.69 222.21 197.79 194.02 214.41 151.75C215.24 149.64 214.17 147.25 212.02 146.5L211.94 146.47C209.9 145.76 207.69 146.8 206.9 148.81C201.71 162 193.88 173.86 184.05 183.73Z" fill="#EBEBEB"/>
<path d="M157.56 187.17C154.68 187.17 152.35 184.84 152.35 181.96V181.49C152.35 178.61 154.68 176.28 157.56 176.28C160.44 176.28 162.77 178.61 162.77 181.49V181.96C162.77 184.83 160.44 187.17 157.56 187.17Z" fill="#EBEBEB"/>
<path d="M216.34 133.64C213.46 133.64 211.13 131.31 211.13 128.43V127.96C211.13 125.08 213.46 122.75 216.34 122.75C219.22 122.75 221.55 125.08 221.55 127.96V128.43C221.55 131.31 219.22 133.64 216.34 133.64Z" fill="#EBEBEB"/>
<path d="M5.21 123.82C2.33 123.82 0 121.49 0 118.61V118.14C0 115.26 2.33 112.93 5.21 112.93C8.09 112.93 10.42 115.26 10.42 118.14V118.61C10.43 121.48 8.09 123.82 5.21 123.82Z" fill="#EBEBEB"/>
<path d="M181.85 59.24H40.19C37.89 59.24 36.02 61.11 36.02 63.41V148.81C36.02 151.11 37.89 152.98 40.19 152.98H181.84C184.14 152.98 186.01 151.11 186.01 148.81V63.41C186.02 61.1 184.15 59.24 181.85 59.24Z" fill="#EEEEEE"/>
<path d="M181.85 59.24H40.19C37.89 59.24 36.02 61.11 36.02 63.41V148.81C36.02 151.11 37.89 152.98 40.19 152.98H181.84C184.14 152.98 186.01 151.11 186.01 148.81V63.41C186.02 61.1 184.15 59.24 181.85 59.24Z" fill="white"/>
<path d="M40.71 146.21V66.01C40.71 64.86 41.64 63.92 42.8 63.92H179.25C180.4 63.92 181.34 64.85 181.34 66.01V146.21C181.34 147.36 180.41 148.3 179.25 148.3H42.79C41.64 148.3 40.71 147.36 40.71 146.21Z" fill="#EEEEEE"/>
<path d="M45.4 132.15V70.7C45.4 69.55 46.33 68.61 47.49 68.61H174.57C175.72 68.61 176.66 69.54 176.66 70.7V132.15C176.66 133.3 175.73 134.24 174.57 134.24H47.48C46.33 134.24 45.4 133.3 45.4 132.15Z" fill="#C6C6C6"/>
<path d="M176.64 155.23H45.39C38.98 155.23 33.77 150.02 33.77 143.61V68.61C33.77 62.2 38.98 56.99 45.39 56.99H176.64C183.05 56.99 188.26 62.2 188.26 68.61V143.61C188.27 150.02 183.05 155.23 176.64 155.23ZM45.39 61.48C41.46 61.48 38.26 64.68 38.26 68.61V143.61C38.26 147.54 41.46 150.74 45.39 150.74H176.64C180.57 150.74 183.77 147.54 183.77 143.61V68.61C183.77 64.68 180.57 61.48 176.64 61.48H45.39Z" fill="#113A52"/>
<path d="M120.39 152.99H101.64V171.74H120.39V152.99Z" fill="#EEEEEE"/>
<path d="M111.01 152.99H101.64V171.74H111.01V152.99Z" fill="white"/>
<path d="M134.46 181.11H87.58C84.99 181.11 82.89 179.01 82.89 176.42C82.89 173.83 84.99 171.73 87.58 171.73H134.45C137.04 171.73 139.14 173.83 139.14 176.42C139.14 179.01 137.05 181.11 134.46 181.11Z" fill="#EEEEEE"/>
<path d="M139.14 176.42H82.89C82.89 173.83 84.99 171.73 87.58 171.73H134.45C137.05 171.74 139.14 173.83 139.14 176.42Z" fill="white"/>
<path d="M122.64 173.98H99.4V150.74H122.64V173.98ZM103.89 169.49H118.15V155.24H103.89V169.49Z" fill="#113A52"/>
<path d="M134.46 183.36H87.58C83.76 183.36 80.64 180.25 80.64 176.43C80.64 172.61 83.75 169.5 87.58 169.5H134.45C138.27 169.5 141.38 172.61 141.38 176.43C141.39 180.25 138.28 183.36 134.46 183.36ZM87.58 173.98C86.23 173.98 85.14 175.07 85.14 176.42C85.14 177.77 86.23 178.86 87.58 178.86H134.45C135.8 178.86 136.89 177.77 136.89 176.42C136.89 175.07 135.8 173.98 134.45 173.98H87.58Z" fill="#113A52"/>
<path d="M111.02 148.3C113.61 148.3 115.71 146.2 115.71 143.61C115.71 141.02 113.61 138.92 111.02 138.92C108.43 138.92 106.33 141.02 106.33 143.61C106.33 146.2 108.43 148.3 111.02 148.3Z" fill="#113A52"/>
<path d="M139.14 120.17H64.14V124.86H139.14V120.17Z" fill="#113A52"/>
<path d="M157.89 77.99H64.14V96.74H157.89V77.99Z" fill="white"/>
<path d="M156.3 131.02C156.48 131.77 156.73 132.51 157.01 133.22C157.15 133.55 157.3 133.87 157.46 134.18H163.73C162.92 133.33 162.25 132.34 161.8 131.23C160.83 128.9 160.83 126.25 161.8 123.92C162.76 121.59 164.64 119.71 166.97 118.75C169.3 117.78 171.95 117.78 174.28 118.75C175.21 119.13 176.07 119.67 176.82 120.32V114.22C176.63 114.13 176.45 114.04 176.26 113.96C175.55 113.67 174.81 113.43 174.06 113.25C173.75 111.25 173.14 109.26 172.23 107.33C171.17 107.24 170.09 107.24 169.03 107.33C168.12 109.27 167.5 111.27 167.19 113.25C166.44 113.44 165.7 113.68 164.99 113.97C164.28 114.27 163.59 114.62 162.93 115.02C161.3 113.83 159.46 112.86 157.44 112.13C156.62 112.82 155.87 113.58 155.18 114.4C155.91 116.42 156.88 118.25 158.07 119.89C157.67 120.55 157.31 121.24 157.01 121.95C156.72 122.66 156.48 123.4 156.3 124.15C154.3 124.46 152.31 125.08 150.37 125.98C150.29 127.05 150.28 128.12 150.37 129.18C152.32 130.09 154.31 130.71 156.3 131.02Z" fill="white"/>
<path d="M84.93 44.92C84.89 45.06 84.83 45.2 84.78 45.33C84.83 45.22 84.88 45.09 84.92 44.97C84.93 44.95 84.93 44.94 84.93 44.92ZM85.13 43.61C85.12 43.91 85.1 44.21 85.04 44.49C85.07 44.35 85.1 44.2 85.11 44.06C85.13 43.92 85.13 43.77 85.13 43.61ZM81.23 49.81L104.36 48.64L112.5 48.23L116.29 48.04C119.86 47.85 124.4 49.75 126.95 51.65C128.58 52.86 130.45 53.87 132.18 53.87C137.18 53.87 141.33 50.3 142.25 45.59C142.3 45.31 142.35 45.03 142.38 44.75L135.74 46.03C135.3 46.11 134.66 45.96 134.32 45.67L132.39 44.11C132.37 44.09 132.34 44.07 132.32 44.05C132.24 43.97 132.18 43.89 132.13 43.79C132.12 43.78 132.12 43.78 132.12 43.78C132.06 43.69 132.02 43.58 131.99 43.47C131.92 43.25 131.9 43.02 131.95 42.81L132.59 40.23C132.7 39.8 133.14 39.37 133.57 39.27L140.05 37.84H140.06L140.6 37.72C138.75 35.06 135.67 33.32 132.17 33.32C130.45 33.32 128.57 34.34 126.95 35.55C124.4 37.45 119.85 39.33 116.28 39.15L112.29 38.95L103.62 38.51L81.22 37.38C77.66 37.2 74.76 39.95 74.75 43.52L74.76 43.66C74.76 43.77 74.77 43.88 74.78 43.99C74.96 47.42 77.77 49.99 81.23 49.81ZM83.99 46.56C83.19 47.45 82.01 48.02 80.71 48.02C78.27 48.02 76.29 46.04 76.29 43.6C76.29 42.27 76.88 41.08 77.8 40.28C77.81 40.26 77.81 40.26 77.83 40.25C77.9 40.18 77.99 40.12 78.06 40.06C78.16 39.98 78.26 39.91 78.36 39.85C78.38 39.84 78.4 39.83 78.41 39.82C78.55 39.73 78.68 39.66 78.83 39.59C79.4 39.32 80.03 39.17 80.7 39.17C83.15 39.18 85.12 41.14 85.12 43.59C85.12 43.89 85.09 44.19 85.03 44.48C85 44.62 84.97 44.76 84.92 44.9C84.88 45.04 84.82 45.18 84.77 45.31C84.74 45.38 84.71 45.44 84.68 45.51C84.65 45.58 84.61 45.63 84.58 45.7C84.52 45.84 84.44 45.96 84.35 46.08C84.3 46.17 84.24 46.25 84.17 46.33C84.17 46.33 84.17 46.33 84.16 46.34C84.11 46.41 84.06 46.46 84 46.54L83.99 46.56ZM85.11 44.06C85.13 43.91 85.13 43.76 85.13 43.61C85.13 43.91 85.1 44.21 85.04 44.5C85.07 44.36 85.1 44.21 85.11 44.06ZM84.92 44.96C84.93 44.94 84.93 44.94 84.93 44.91C84.89 45.05 84.83 45.19 84.78 45.32C84.84 45.22 84.88 45.09 84.92 44.96Z" fill="#E0E2E6"/>
<path opacity="0.2" d="M132.39 44.12C132.2 43.97 132.07 43.73 131.99 43.48L131.95 43.63C131.84 44.06 132.04 44.64 132.39 44.92L134.32 46.49C134.67 46.77 135.3 46.93 135.74 46.85L142.25 45.6C142.3 45.32 142.35 45.05 142.38 44.77L135.74 46.05C135.3 46.13 134.67 45.98 134.32 45.69L132.39 44.12Z" fill="black"/>
<path opacity="0.3" d="M74.79 44.01C74.78 43.9 74.77 43.79 74.77 43.68L74.76 43.54C74.77 39.97 77.66 37.21 81.23 37.4L103.63 38.53L112.3 38.97L116.29 39.17C119.86 39.36 124.41 37.47 126.96 35.57C128.58 34.35 130.46 33.34 132.18 33.34C135.67 33.34 138.75 35.08 140.61 37.74L140.07 37.86H140.06C138.18 35.59 135.36 34.15 132.18 34.15C130.46 34.15 128.59 35.16 126.96 36.37C124.4 38.27 119.86 40.16 116.29 39.98L112.08 39.77L103.93 39.36L81.23 38.21C77.77 38.03 74.96 40.6 74.79 44.01Z" fill="white"/>
<path d="M117.91 41.71C118.8 41.76 119.52 42.53 119.52 43.42V43.79C119.52 44.68 118.8 45.45 117.91 45.5L85.96 47.39C87.39 44.79 87.39 42.3 85.96 39.82L117.91 41.71Z" fill="#CFCFD1"/>
<path opacity="0.3" d="M117.91 45.51L86.12 47.38C86.06 47.5 86.02 47.6 85.96 47.71L117.91 45.82C118.8 45.77 119.52 45 119.52 44.11V43.79C119.52 44.69 118.8 45.46 117.91 45.51Z" fill="white"/>
<path opacity="0.2" d="M117.91 42.52C118.73 42.57 119.4 43.22 119.5 44.01C119.51 43.94 119.52 43.87 119.52 43.79V43.42C119.52 42.52 118.8 41.76 117.91 41.71L85.96 39.82C86.12 40.1 117.91 42.52 117.91 42.52Z" fill="black"/>
<path opacity="0.2" d="M80.71 39.19C83.15 39.19 85.13 41.17 85.13 43.61C85.13 44.75 84.69 45.78 83.99 46.57C84.89 45.76 85.45 44.59 85.45 43.29C85.45 40.85 83.47 38.87 81.03 38.87C79.73 38.87 78.56 39.44 77.75 40.33C78.55 39.62 79.58 39.19 80.71 39.19Z" fill="black"/>
</g>
<defs>
<clipPath id="clip0">
<rect width="222.04" height="222.21" fill="white"/>
</clipPath>
</defs>
</svg>
