<svg width="19" height="24" viewBox="0 0 19 24" fill="none" xmlns="http://www.w3.org/2000/svg">
<path fill-rule="evenodd" clip-rule="evenodd" d="M3.00001 21.4995V18.7095C2.05491 17.8661 1.29899 16.8322 0.781937 15.6758C0.264885 14.5194 -0.00159563 13.2667 7.18765e-06 12C7.18765e-06 9.3345 1.15801 6.939 3.00001 5.292V2.5005C3.00001 1.1205 4.11901 0 5.50051 0H12.4995C13.8795 0 15 1.119 15 2.5005V5.2905C15.9451 6.13392 16.701 7.16779 17.2181 8.32418C17.7351 9.48057 18.0016 10.7333 18 12C18.0014 13.2665 17.7348 14.5189 17.2178 15.675C16.7007 16.8311 15.9449 17.8647 15 18.708V21.4995C15 22.8795 13.881 24 12.4995 24H5.50051C4.12051 24 3.00001 22.881 3.00001 21.4995ZM16.5 12C16.5 10.0109 15.7098 8.10322 14.3033 6.6967C12.8968 5.29018 10.9891 4.5 9.00001 4.5C7.01088 4.5 5.10323 5.29018 3.69671 6.6967C2.29018 8.10322 1.50001 10.0109 1.50001 12C1.50001 13.9891 2.29018 15.8968 3.69671 17.3033C5.10323 18.7098 7.01088 19.5 9.00001 19.5C10.9891 19.5 12.8968 18.7098 14.3033 17.3033C15.7098 15.8968 16.5 13.9891 16.5 12Z" fill="#434343"/>
<path d="M17.877 13.4894C17.9843 13.5067 18.0941 13.5006 18.1988 13.4715C18.3035 13.4423 18.4007 13.3909 18.4837 13.3206C18.5666 13.2503 18.6334 13.1629 18.6793 13.0644C18.7253 12.9659 18.7494 12.8586 18.75 12.7499V11.2499C18.7499 11.141 18.7262 11.0335 18.6803 10.9347C18.6345 10.8359 18.5678 10.7483 18.4847 10.678C18.4016 10.6076 18.3043 10.5562 18.1993 10.5272C18.0943 10.4983 17.9843 10.4925 17.877 10.5104C18.0412 11.4966 18.0412 12.5032 17.877 13.4894Z" fill="#434343"/>
<path fill-rule="evenodd" clip-rule="evenodd" d="M9 6.75C9.19891 6.75 9.38968 6.82902 9.53033 6.96967C9.67098 7.11032 9.75 7.30109 9.75 7.5V12C9.75 12.1989 9.67098 12.3897 9.53033 12.5303C9.38968 12.671 9.19891 12.75 9 12.75H6C5.80109 12.75 5.61032 12.671 5.46967 12.5303C5.32902 12.3897 5.25 12.1989 5.25 12C5.25 11.8011 5.32902 11.6103 5.46967 11.4697C5.61032 11.329 5.80109 11.25 6 11.25H8.25V7.5C8.25 7.30109 8.32902 7.11032 8.46967 6.96967C8.61032 6.82902 8.80109 6.75 9 6.75Z" fill="#434343"/>
</svg>
