<svg width="22" height="28" viewBox="0 0 22 28" fill="none" xmlns="http://www.w3.org/2000/svg">
<path d="M2.2 5.38705V19.5C2.19979 20.8964 2.73071 22.2406 3.68509 23.2599C4.63946 24.2793 5.94583 24.8974 7.3392 24.989L7.7 25H17.4108C17.1834 25.6434 16.7621 26.2004 16.205 26.5944C15.6479 26.9883 14.9823 27.2 14.3 27.2001H6.6C4.84957 27.2 3.17084 26.5047 1.9331 25.267C0.695356 24.0292 4.53721e-07 22.3505 4.53721e-07 20.6V8.50005C-0.000357456 7.81733 0.211041 7.15131 0.605062 6.59377C0.999083 6.03623 1.55633 5.61462 2.2 5.38705ZM18.7 0.800049C19.5752 0.800049 20.4146 1.14773 21.0335 1.7666C21.6523 2.38547 22 3.22483 22 4.10005V19.5C22 20.3753 21.6523 21.2146 21.0335 21.8335C20.4146 22.4524 19.5752 22.8 18.7 22.8H7.7C6.82479 22.8 5.98542 22.4524 5.36655 21.8335C4.74768 21.2146 4.4 20.3753 4.4 19.5V4.10005C4.4 3.22483 4.74768 2.38547 5.36655 1.7666C5.98542 1.14773 6.82479 0.800049 7.7 0.800049H18.7ZM18.7 3.00005H7.7C7.40826 3.00005 7.12847 3.11594 6.92218 3.32223C6.71589 3.52852 6.6 3.80831 6.6 4.10005V19.5C6.6 19.7918 6.71589 20.0716 6.92218 20.2779C7.12847 20.4842 7.40826 20.6 7.7 20.6H18.7C18.9917 20.6 19.2715 20.4842 19.4778 20.2779C19.6841 20.0716 19.8 19.7918 19.8 19.5V4.10005C19.8 3.80831 19.6841 3.52852 19.4778 3.32223C19.2715 3.11594 18.9917 3.00005 18.7 3.00005Z" fill="white"/>
</svg>
